<svg xmlns="http://www.w3.org/2000/svg" width="20.076" height="20.076" viewBox="0 0 20.076 20.076"><defs><style>.a{fill:#fff;}</style></defs><path class="a" d="M-827.467,246.412a1.968,1.968,0,0,0-.477-.733,1.968,1.968,0,0,0-.733-.477,3.524,3.524,0,0,0-1.183-.219c-.672-.031-.874-.037-2.576-.037s-1.9.006-2.576.037a3.529,3.529,0,0,0-1.184.219,1.967,1.967,0,0,0-.733.477,1.975,1.975,0,0,0-.477.733,3.538,3.538,0,0,0-.219,1.183c-.03.672-.037.874-.037,2.576s.007,1.9.037,2.576a3.544,3.544,0,0,0,.219,1.184,1.976,1.976,0,0,0,.477.733,1.975,1.975,0,0,0,.733.477,3.546,3.546,0,0,0,1.184.219c.672.03.873.037,2.576.037s1.9-.007,2.576-.037a3.541,3.541,0,0,0,1.183-.219,1.976,1.976,0,0,0,.733-.477,1.968,1.968,0,0,0,.477-.733,3.547,3.547,0,0,0,.219-1.184c.031-.672.037-.873.037-2.576s-.006-1.9-.037-2.576A3.542,3.542,0,0,0-827.467,246.412Zm-4.968,7.032a3.273,3.273,0,0,1-3.273-3.273,3.273,3.273,0,0,1,3.273-3.273,3.273,3.273,0,0,1,3.273,3.273A3.273,3.273,0,0,1-832.436,253.444Zm3.4-5.911a.765.765,0,0,1-.765-.765.765.765,0,0,1,.765-.765.765.765,0,0,1,.765.765A.765.765,0,0,1-829.034,247.534Z" transform="translate(842.474 -240.133)"/><path class="a" d="M-830.9,249.579a2.125,2.125,0,0,0-2.125,2.125,2.124,2.124,0,0,0,2.125,2.125,2.125,2.125,0,0,0,2.125-2.125A2.125,2.125,0,0,0-830.9,249.579Z" transform="translate(840.941 -241.666)"/><path class="a" d="M-834.815,237.753a10.039,10.039,0,0,0-10.039,10.038,10.038,10.038,0,0,0,10.039,10.038,10.038,10.038,0,0,0,10.038-10.038A10.039,10.039,0,0,0-834.815,237.753Zm6.335,12.666a4.687,4.687,0,0,1-.3,1.548,3.139,3.139,0,0,1-.735,1.129,3.128,3.128,0,0,1-1.129.735,4.663,4.663,0,0,1-1.547.3c-.68.031-.9.038-2.628.038s-1.949-.007-2.628-.038a4.666,4.666,0,0,1-1.547-.3,3.128,3.128,0,0,1-1.129-.735,3.13,3.13,0,0,1-.735-1.129,4.669,4.669,0,0,1-.3-1.548c-.031-.679-.038-.9-.038-2.628s.007-1.948.038-2.628a4.665,4.665,0,0,1,.3-1.547,3.13,3.13,0,0,1,.735-1.129,3.13,3.13,0,0,1,1.129-.735,4.686,4.686,0,0,1,1.547-.3c.68-.031.9-.039,2.628-.039s1.948.007,2.628.039a4.683,4.683,0,0,1,1.547.3,3.13,3.13,0,0,1,1.129.735,3.139,3.139,0,0,1,.735,1.129,4.682,4.682,0,0,1,.3,1.547c.031.68.039.9.039,2.628S-828.449,249.739-828.481,250.419Z" transform="translate(844.854 -237.753)"/></svg>