<svg xmlns="http://www.w3.org/2000/svg" width="710.067" height="858.258" viewBox="0 0 710.067 858.258">
  <g id="Group_706" data-name="Group 706" transform="translate(-254.208 -758.331)" opacity="0.201">
    <path id="Path_1123" data-name="Path 1123" d="M327.683,758.539a.1.1,0,0,0,0-.208.1.1,0,0,0-.1.1A.1.1,0,0,0,327.683,758.539Z" transform="translate(225.287)" fill="#82d2ef"/>
    <circle id="Ellipse_40" data-name="Ellipse 40" cx="0.103" cy="0.103" r="0.103" transform="translate(590.172 758.331)" fill="#82d2ef"/>
    <path id="Path_1124" data-name="Path 1124" d="M346.01,758.539a.1.1,0,1,0,0-.208.1.1,0,0,0-.1.1A.1.1,0,0,0,346.01,758.539Z" transform="translate(281.571)" fill="#82d2ef"/>
    <path id="Path_1125" data-name="Path 1125" d="M355.178,758.539a.1.1,0,1,0,0-.208.1.1,0,0,0,0,.208Z" transform="translate(309.708)" fill="#82d2ef"/>
    <path id="Path_1126" data-name="Path 1126" d="M364.347,758.539a.1.1,0,1,0,0-.208.1.1,0,1,0,0,.208Z" transform="translate(337.849)" fill="#82d2ef"/>
    <circle id="Ellipse_41" data-name="Ellipse 41" cx="0.103" cy="0.103" r="0.103" transform="translate(739.398 758.331)" fill="#82d2ef"/>
    <path id="Path_1127" data-name="Path 1127" d="M382.674,758.539a.1.1,0,1,0,0-.208.1.1,0,0,0,0,.208Z" transform="translate(394.133)" fill="#82d2ef"/>
    <path id="Path_1128" data-name="Path 1128" d="M309.349,767.7a.1.1,0,1,0,0-.208.1.1,0,0,0-.1.1A.1.1,0,0,0,309.349,767.7Z" transform="translate(169.006 28.14)" fill="#82d2ef"/>
    <path id="Path_1129" data-name="Path 1129" d="M318.677,768.075a.319.319,0,0,0,.309-.318.311.311,0,1,0-.623,0A.32.32,0,0,0,318.677,768.075Z" transform="translate(196.987 27.981)" fill="#82d2ef"/>
    <path id="Path_1130" data-name="Path 1130" d="M327.919,768.246a.413.413,0,1,0-.415-.415A.414.414,0,0,0,327.919,768.246Z" transform="translate(225.05 27.907)" fill="#82d2ef"/>
    <path id="Path_1131" data-name="Path 1131" d="M337.161,768.429a.517.517,0,1,0-.517-.521A.519.519,0,0,0,337.161,768.429Z" transform="translate(253.114 27.83)" fill="#82d2ef"/>
    <path id="Path_1132" data-name="Path 1132" d="M346.4,768.61a.621.621,0,1,0-.619-.623A.619.619,0,0,0,346.4,768.61Z" transform="translate(281.178 27.751)" fill="#82d2ef"/>
    <path id="Path_1133" data-name="Path 1133" d="M355.565,768.61a.621.621,0,1,0,0-1.241.621.621,0,0,0,0,1.241Z" transform="translate(309.322 27.751)" fill="#82d2ef"/>
    <path id="Path_1134" data-name="Path 1134" d="M364.734,768.61a.621.621,0,1,0-.619-.623A.622.622,0,0,0,364.734,768.61Z" transform="translate(337.462 27.751)" fill="#82d2ef"/>
    <path id="Path_1135" data-name="Path 1135" d="M373.742,768.246a.413.413,0,1,0,0-.826.413.413,0,0,0,0,.826Z" transform="translate(365.759 27.907)" fill="#82d2ef"/>
    <path id="Path_1136" data-name="Path 1136" d="M382.83,768.075a.316.316,0,0,0,.309-.318.309.309,0,1,0-.619,0A.316.316,0,0,0,382.83,768.075Z" transform="translate(393.976 27.981)" fill="#82d2ef"/>
    <path id="Path_1137" data-name="Path 1137" d="M391.919,767.882a.206.206,0,1,0,0-.411.206.206,0,1,0,0,.411Z" transform="translate(422.194 28.064)" fill="#82d2ef"/>
    <path id="Path_1138" data-name="Path 1138" d="M401.008,767.7a.1.1,0,1,0-.106-.106A.105.105,0,0,0,401.008,767.7Z" transform="translate(450.414 28.14)" fill="#82d2ef"/>
    <path id="Path_1139" data-name="Path 1139" d="M291.025,776.869a.1.1,0,0,0,0-.208.1.1,0,1,0,0,.208Z" transform="translate(112.719 56.281)" fill="#82d2ef"/>
    <path id="Path_1140" data-name="Path 1140" d="M300.343,777.233a.309.309,0,0,0,.309-.309.309.309,0,1,0-.619,0A.309.309,0,0,0,300.343,777.233Z" transform="translate(140.706 56.125)" fill="#82d2ef"/>
    <path id="Path_1141" data-name="Path 1141" d="M309.742,777.775a.621.621,0,0,0,0-1.241.621.621,0,0,0,0,1.241Z" transform="translate(168.613 55.891)" fill="#82d2ef"/>
    <path id="Path_1142" data-name="Path 1142" d="M319.147,778.318a.93.93,0,1,0-.936-.928A.928.928,0,0,0,319.147,778.318Z" transform="translate(196.517 55.658)" fill="#82d2ef"/>
    <path id="Path_1143" data-name="Path 1143" d="M328.466,778.682a1.138,1.138,0,1,0-1.14-1.136A1.136,1.136,0,0,0,328.466,778.682Z" transform="translate(224.504 55.501)" fill="#82d2ef"/>
    <path id="Path_1144" data-name="Path 1144" d="M337.711,778.865a1.241,1.241,0,1,0-1.246-1.241A1.245,1.245,0,0,0,337.711,778.865Z" transform="translate(252.565 55.424)" fill="#82d2ef"/>
    <path id="Path_1145" data-name="Path 1145" d="M346.872,778.865a1.241,1.241,0,1,0-1.241-1.241A1.241,1.241,0,0,0,346.872,778.865Z" transform="translate(280.708 55.424)" fill="#82d2ef"/>
    <path id="Path_1146" data-name="Path 1146" d="M356.038,778.865a1.241,1.241,0,1,0-1.242-1.241A1.245,1.245,0,0,0,356.038,778.865Z" transform="translate(308.849 55.424)" fill="#82d2ef"/>
    <path id="Path_1147" data-name="Path 1147" d="M365.127,778.682a1.138,1.138,0,1,0-1.14-1.136A1.136,1.136,0,0,0,365.127,778.682Z" transform="translate(337.069 55.501)" fill="#82d2ef"/>
    <circle id="Ellipse_42" data-name="Ellipse 42" cx="0.93" cy="0.93" r="0.93" transform="translate(738.572 832.116)" fill="#82d2ef"/>
    <path id="Path_1148" data-name="Path 1148" d="M383.143,777.954a.723.723,0,1,0-.724-.72A.724.724,0,0,0,383.143,777.954Z" transform="translate(393.663 55.814)" fill="#82d2ef"/>
    <path id="Path_1149" data-name="Path 1149" d="M392.149,777.59a.515.515,0,1,0-.513-.513A.512.512,0,0,0,392.149,777.59Z" transform="translate(421.963 55.971)" fill="#82d2ef"/>
    <path id="Path_1150" data-name="Path 1150" d="M401.164,777.233a.306.306,0,0,0,.305-.309.31.31,0,0,0-.305-.314.314.314,0,0,0-.313.314A.31.31,0,0,0,401.164,777.233Z" transform="translate(450.257 56.125)" fill="#82d2ef"/>
    <path id="Path_1151" data-name="Path 1151" d="M410.17,776.869a.1.1,0,1,0,0-.208.1.1,0,0,0,0,.208Z" transform="translate(478.558 56.281)" fill="#82d2ef"/>
    <path id="Path_1152" data-name="Path 1152" d="M281.863,786.034a.1.1,0,0,0,.1-.1.108.108,0,0,0-.1-.11.112.112,0,0,0-.11.11A.107.107,0,0,0,281.863,786.034Z" transform="translate(84.575 84.421)" fill="#82d2ef"/>
    <path id="Path_1153" data-name="Path 1153" d="M291.335,786.759a.517.517,0,1,0-.517-.513A.514.514,0,0,0,291.335,786.759Z" transform="translate(112.409 84.111)" fill="#82d2ef"/>
    <path id="Path_1154" data-name="Path 1154" d="M300.813,787.487a.932.932,0,1,0-.932-.928A.925.925,0,0,0,300.813,787.487Z" transform="translate(140.236 83.798)" fill="#82d2ef"/>
    <path id="Path_1155" data-name="Path 1155" d="M310.288,788.215a1.347,1.347,0,1,0-1.343-1.343A1.348,1.348,0,0,0,310.288,788.215Z" transform="translate(168.066 83.485)" fill="#82d2ef"/>
    <path id="Path_1156" data-name="Path 1156" d="M319.691,788.758a1.657,1.657,0,1,0-1.657-1.652A1.651,1.651,0,0,0,319.691,788.758Z" transform="translate(195.973 83.252)" fill="#82d2ef"/>
    <path id="Path_1157" data-name="Path 1157" d="M329.089,789.3a1.966,1.966,0,1,0-1.966-1.962A1.961,1.961,0,0,0,329.089,789.3Z" transform="translate(223.881 83.018)" fill="#82d2ef"/>
    <path id="Path_1158" data-name="Path 1158" d="M338.251,789.3a1.966,1.966,0,1,0-1.962-1.962A1.961,1.961,0,0,0,338.251,789.3Z" transform="translate(252.024 83.018)" fill="#82d2ef"/>
    <path id="Path_1159" data-name="Path 1159" d="M347.416,789.3a1.966,1.966,0,1,0-1.962-1.962A1.961,1.961,0,0,0,347.416,789.3Z" transform="translate(280.165 83.018)" fill="#82d2ef"/>
    <path id="Path_1160" data-name="Path 1160" d="M356.581,789.3a1.966,1.966,0,1,0-1.962-1.962A1.968,1.968,0,0,0,356.581,789.3Z" transform="translate(308.305 83.018)" fill="#82d2ef"/>
    <path id="Path_1161" data-name="Path 1161" d="M365.514,788.758a1.657,1.657,0,1,0-1.653-1.652A1.651,1.651,0,0,0,365.514,788.758Z" transform="translate(336.682 83.252)" fill="#82d2ef"/>
    <path id="Path_1162" data-name="Path 1162" d="M374.522,788.391a1.447,1.447,0,1,0-1.445-1.445A1.453,1.453,0,0,0,374.522,788.391Z" transform="translate(364.979 83.411)" fill="#82d2ef"/>
    <path id="Path_1163" data-name="Path 1163" d="M383.454,787.851a1.14,1.14,0,1,0-1.136-1.136A1.142,1.142,0,0,0,383.454,787.851Z" transform="translate(393.353 83.642)" fill="#82d2ef"/>
    <path id="Path_1164" data-name="Path 1164" d="M392.385,787.306a.828.828,0,1,0-.826-.826A.828.828,0,0,0,392.385,787.306Z" transform="translate(421.727 83.878)" fill="#82d2ef"/>
    <path id="Path_1165" data-name="Path 1165" d="M401.395,786.941a.621.621,0,1,0-.619-.619A.622.622,0,0,0,401.395,786.941Z" transform="translate(450.027 84.035)" fill="#82d2ef"/>
    <path id="Path_1166" data-name="Path 1166" d="M410.326,786.4a.309.309,0,0,0,.31-.309.309.309,0,1,0-.619,0A.309.309,0,0,0,410.326,786.4Z" transform="translate(478.401 84.265)" fill="#82d2ef"/>
    <path id="Path_1167" data-name="Path 1167" d="M419.335,786.034a.1.1,0,0,0,.106-.1.1.1,0,1,0-.208,0A.1.1,0,0,0,419.335,786.034Z" transform="translate(506.698 84.421)" fill="#82d2ef"/>
    <path id="Path_1168" data-name="Path 1168" d="M272.691,795.2a.108.108,0,0,0,.106-.106.1.1,0,0,0-.106-.1.1.1,0,0,0-.1.1A.1.1,0,0,0,272.691,795.2Z" transform="translate(56.438 112.565)" fill="#82d2ef"/>
    <path id="Path_1169" data-name="Path 1169" d="M282.17,795.928a.519.519,0,0,0,0-1.038.519.519,0,0,0,0,1.038Z" transform="translate(84.268 112.252)" fill="#82d2ef"/>
    <path id="Path_1170" data-name="Path 1170" d="M291.725,796.831a1.034,1.034,0,1,0-1.034-1.034A1.035,1.035,0,0,0,291.725,796.831Z" transform="translate(112.019 111.862)" fill="#82d2ef"/>
    <path id="Path_1171" data-name="Path 1171" d="M301.357,797.923a1.657,1.657,0,1,0-1.653-1.656A1.654,1.654,0,0,0,301.357,797.923Z" transform="translate(139.692 111.392)" fill="#82d2ef"/>
    <path id="Path_1172" data-name="Path 1172" d="M310.991,799.009a2.275,2.275,0,1,0-2.275-2.275A2.275,2.275,0,0,0,310.991,799.009Z" transform="translate(167.363 110.926)" fill="#82d2ef"/>
    <path id="Path_1173" data-name="Path 1173" d="M320.394,799.551a2.585,2.585,0,1,0-2.589-2.585A2.587,2.587,0,0,0,320.394,799.551Z" transform="translate(195.27 110.692)" fill="#82d2ef"/>
    <path id="Path_1174" data-name="Path 1174" d="M329.715,799.919a2.794,2.794,0,1,0-2.8-2.8A2.795,2.795,0,0,0,329.715,799.919Z" transform="translate(223.254 110.536)" fill="#82d2ef"/>
    <path id="Path_1175" data-name="Path 1175" d="M338.877,799.919a2.794,2.794,0,1,0-2.792-2.8A2.8,2.8,0,0,0,338.877,799.919Z" transform="translate(251.398 110.536)" fill="#82d2ef"/>
    <path id="Path_1176" data-name="Path 1176" d="M348.039,799.919a2.794,2.794,0,1,0-2.788-2.8A2.8,2.8,0,0,0,348.039,799.919Z" transform="translate(279.541 110.536)" fill="#82d2ef"/>
    <path id="Path_1177" data-name="Path 1177" d="M357.051,799.551a2.585,2.585,0,1,0-2.585-2.585A2.584,2.584,0,0,0,357.051,799.551Z" transform="translate(307.835 110.692)" fill="#82d2ef"/>
    <path id="Path_1178" data-name="Path 1178" d="M365.983,799.009a2.275,2.275,0,1,0-2.275-2.275A2.274,2.274,0,0,0,365.983,799.009Z" transform="translate(336.212 110.926)" fill="#82d2ef"/>
    <path id="Path_1179" data-name="Path 1179" d="M374.838,798.284a1.862,1.862,0,1,0-1.864-1.864A1.863,1.863,0,0,0,374.838,798.284Z" transform="translate(364.663 111.239)" fill="#82d2ef"/>
    <path id="Path_1180" data-name="Path 1180" d="M383.687,797.559a1.449,1.449,0,1,0-1.445-1.449A1.45,1.45,0,0,0,383.687,797.559Z" transform="translate(393.12 111.549)" fill="#82d2ef"/>
    <path id="Path_1181" data-name="Path 1181" d="M392.619,797.016a1.14,1.14,0,1,0-1.136-1.14A1.139,1.139,0,0,0,392.619,797.016Z" transform="translate(421.494 111.782)" fill="#82d2ef"/>
    <path id="Path_1182" data-name="Path 1182" d="M401.475,796.285a.723.723,0,1,0-.725-.725A.723.723,0,0,0,401.475,796.285Z" transform="translate(449.947 112.099)" fill="#82d2ef"/>
    <path id="Path_1183" data-name="Path 1183" d="M410.4,795.746a.415.415,0,1,0-.411-.415A.417.417,0,0,0,410.4,795.746Z" transform="translate(478.324 112.329)" fill="#82d2ef"/>
    <path id="Path_1184" data-name="Path 1184" d="M419.411,795.381a.208.208,0,1,0-.2-.208A.206.206,0,0,0,419.411,795.381Z" transform="translate(506.621 112.485)" fill="#82d2ef"/>
    <path id="Path_1185" data-name="Path 1185" d="M428.5,795.2a.105.105,0,0,0,.106-.106.1.1,0,0,0-.106-.1.1.1,0,0,0-.1.1A.107.107,0,0,0,428.5,795.2Z" transform="translate(534.839 112.565)" fill="#82d2ef"/>
    <circle id="Ellipse_43" data-name="Ellipse 43" cx="0.103" cy="0.103" r="0.103" transform="translate(291.718 944.864)" fill="#82d2ef"/>
    <path id="Path_1186" data-name="Path 1186" d="M272.927,804.907a.413.413,0,0,0,0-.826.413.413,0,1,0,0,.826Z" transform="translate(56.201 140.472)" fill="#82d2ef"/>
    <circle id="Ellipse_44" data-name="Ellipse 44" cx="1.033" cy="1.033" r="1.033" transform="translate(365.404 943.933)" fill="#82d2ef"/>
    <path id="Path_1187" data-name="Path 1187" d="M292.274,807.264a1.757,1.757,0,1,0-1.762-1.754A1.754,1.754,0,0,0,292.274,807.264Z" transform="translate(111.469 139.459)" fill="#82d2ef"/>
    <path id="Path_1188" data-name="Path 1188" d="M302.06,808.713a2.583,2.583,0,1,0-2.585-2.581A2.588,2.588,0,0,0,302.06,808.713Z" transform="translate(138.989 138.836)" fill="#82d2ef"/>
    <path id="Path_1189" data-name="Path 1189" d="M311.691,809.807a3.206,3.206,0,1,0-3.2-3.208A3.209,3.209,0,0,0,311.691,809.807Z" transform="translate(166.663 138.369)" fill="#82d2ef"/>
    <path id="Path_1190" data-name="Path 1190" d="M321.174,810.534a3.621,3.621,0,1,0-3.623-3.619A3.619,3.619,0,0,0,321.174,810.534Z" transform="translate(194.49 138.053)" fill="#82d2ef"/>
    <path id="Path_1191" data-name="Path 1191" d="M330.339,810.534a3.621,3.621,0,1,0-3.623-3.619A3.619,3.619,0,0,0,330.339,810.534Z" transform="translate(222.631 138.053)" fill="#82d2ef"/>
    <path id="Path_1192" data-name="Path 1192" d="M339.5,810.534a3.621,3.621,0,1,0-3.623-3.619A3.622,3.622,0,0,0,339.5,810.534Z" transform="translate(250.771 138.053)" fill="#82d2ef"/>
    <path id="Path_1193" data-name="Path 1193" d="M348.509,810.17a3.413,3.413,0,1,0-3.411-3.411A3.411,3.411,0,0,0,348.509,810.17Z" transform="translate(279.072 138.21)" fill="#82d2ef"/>
    <path id="Path_1194" data-name="Path 1194" d="M357.441,809.628a3.1,3.1,0,1,0-3.1-3.1A3.1,3.1,0,0,0,357.441,809.628Z" transform="translate(307.445 138.443)" fill="#82d2ef"/>
    <path id="Path_1195" data-name="Path 1195" d="M366.22,808.713a2.583,2.583,0,1,0-2.589-2.581A2.582,2.582,0,0,0,366.22,808.713Z" transform="translate(335.976 138.836)" fill="#82d2ef"/>
    <path id="Path_1196" data-name="Path 1196" d="M374.995,807.809a2.068,2.068,0,1,0-2.072-2.064A2.071,2.071,0,0,0,374.995,807.809Z" transform="translate(364.506 139.223)" fill="#82d2ef"/>
    <path id="Path_1197" data-name="Path 1197" d="M383.843,807.085a1.655,1.655,0,1,0-1.652-1.653A1.651,1.651,0,0,0,383.843,807.085Z" transform="translate(392.963 139.536)" fill="#82d2ef"/>
    <path id="Path_1198" data-name="Path 1198" d="M392.7,806.357a1.239,1.239,0,1,0-1.237-1.237A1.241,1.241,0,0,0,392.7,806.357Z" transform="translate(421.417 139.849)" fill="#82d2ef"/>
    <path id="Path_1199" data-name="Path 1199" d="M401.631,805.814a.93.93,0,1,0-.932-.928A.931.931,0,0,0,401.631,805.814Z" transform="translate(449.791 140.082)" fill="#82d2ef"/>
    <path id="Path_1200" data-name="Path 1200" d="M410.563,805.271a.621.621,0,1,0-.623-.619A.622.622,0,0,0,410.563,805.271Z" transform="translate(478.165 140.316)" fill="#82d2ef"/>
    <path id="Path_1201" data-name="Path 1201" d="M419.491,804.729a.313.313,0,0,0,.313-.309.316.316,0,0,0-.313-.313.313.313,0,0,0-.309.313A.309.309,0,0,0,419.491,804.729Z" transform="translate(506.541 140.549)" fill="#82d2ef"/>
    <circle id="Ellipse_45" data-name="Ellipse 45" cx="0.103" cy="0.103" r="0.103" transform="translate(963.236 944.864)" fill="#82d2ef"/>
    <circle id="Ellipse_46" data-name="Ellipse 46" cx="0.207" cy="0.207" r="0.207" transform="translate(291.615 982.066)" fill="#82d2ef"/>
    <path id="Path_1202" data-name="Path 1202" d="M273.237,814.8a.828.828,0,1,0-.826-.83A.831.831,0,0,0,273.237,814.8Z" transform="translate(55.891 168.303)" fill="#82d2ef"/>
    <path id="Path_1203" data-name="Path 1203" d="M283.03,816.257a1.659,1.659,0,1,0-1.657-1.657A1.657,1.657,0,0,0,283.03,816.257Z" transform="translate(83.408 167.673)" fill="#82d2ef"/>
    <path id="Path_1204" data-name="Path 1204" d="M292.9,817.885a2.587,2.587,0,1,0-2.589-2.584A2.589,2.589,0,0,0,292.9,817.885Z" transform="translate(110.846 166.973)" fill="#82d2ef"/>
    <path id="Path_1205" data-name="Path 1205" d="M302.763,819.521A3.519,3.519,0,1,0,299.246,816,3.518,3.518,0,0,0,302.763,819.521Z" transform="translate(138.286 166.27)" fill="#82d2ef"/>
    <circle id="Ellipse_47" data-name="Ellipse 47" cx="4.138" cy="4.138" r="4.138" transform="translate(474.216 978.134)" fill="#82d2ef"/>
    <path id="Path_1206" data-name="Path 1206" d="M321.8,821.149a4.447,4.447,0,1,0-4.453-4.445A4.449,4.449,0,0,0,321.8,821.149Z" transform="translate(193.864 165.57)" fill="#82d2ef"/>
    <path id="Path_1207" data-name="Path 1207" d="M331.039,821.334a4.553,4.553,0,1,0-4.551-4.551A4.553,4.553,0,0,0,331.039,821.334Z" transform="translate(221.931 165.49)" fill="#82d2ef"/>
    <circle id="Ellipse_48" data-name="Ellipse 48" cx="4.448" cy="4.448" r="4.448" transform="translate(585.827 977.824)" fill="#82d2ef"/>
    <circle id="Ellipse_49" data-name="Ellipse 49" cx="4.035" cy="4.035" r="4.035" transform="translate(623.546 978.238)" fill="#82d2ef"/>
    <path id="Path_1208" data-name="Path 1208" d="M357.751,819.521A3.519,3.519,0,1,0,354.238,816,3.515,3.515,0,0,0,357.751,819.521Z" transform="translate(307.135 166.27)" fill="#82d2ef"/>
    <path id="Path_1209" data-name="Path 1209" d="M366.373,818.25a2.794,2.794,0,1,0-2.792-2.792A2.792,2.792,0,0,0,366.373,818.25Z" transform="translate(335.822 166.817)" fill="#82d2ef"/>
    <path id="Path_1210" data-name="Path 1210" d="M375.069,817.164a2.176,2.176,0,1,0-2.17-2.173A2.173,2.173,0,0,0,375.069,817.164Z" transform="translate(364.433 167.283)" fill="#82d2ef"/>
    <path id="Path_1211" data-name="Path 1211" d="M383.843,816.257a1.659,1.659,0,1,0-1.652-1.657A1.655,1.655,0,0,0,383.843,816.257Z" transform="translate(392.963 167.673)" fill="#82d2ef"/>
    <path id="Path_1212" data-name="Path 1212" d="M392.7,815.526a1.241,1.241,0,1,0-1.237-1.241A1.242,1.242,0,0,0,392.7,815.526Z" transform="translate(421.417 167.99)" fill="#82d2ef"/>
    <path id="Path_1213" data-name="Path 1213" d="M401.631,814.979a.93.93,0,1,0-.932-.928A.931.931,0,0,0,401.631,814.979Z" transform="translate(449.791 168.223)" fill="#82d2ef"/>
    <path id="Path_1214" data-name="Path 1214" d="M410.563,814.436a.621.621,0,1,0-.623-.618A.622.622,0,0,0,410.563,814.436Z" transform="translate(478.165 168.456)" fill="#82d2ef"/>
    <circle id="Ellipse_50" data-name="Ellipse 50" cx="0.31" cy="0.31" r="0.31" transform="translate(925.724 981.962)" fill="#82d2ef"/>
    <circle id="Ellipse_51" data-name="Ellipse 51" cx="0.103" cy="0.103" r="0.103" transform="translate(963.236 982.169)" fill="#82d2ef"/>
    <path id="Path_1215" data-name="Path 1215" d="M263.762,823.237a.413.413,0,0,0,0-.826.413.413,0,1,0,0,.826Z" transform="translate(28.061 196.753)" fill="#82d2ef"/>
    <path id="Path_1216" data-name="Path 1216" d="M273.551,824.691a1.241,1.241,0,1,0-1.242-1.242A1.239,1.239,0,0,0,273.551,824.691Z" transform="translate(55.578 196.13)" fill="#82d2ef"/>
    <path id="Path_1217" data-name="Path 1217" d="M283.5,826.5a2.273,2.273,0,1,0-2.279-2.271A2.272,2.272,0,0,0,283.5,826.5Z" transform="translate(82.939 195.35)" fill="#82d2ef"/>
    <path id="Path_1218" data-name="Path 1218" d="M293.6,828.687a3.519,3.519,0,1,0-3.517-3.521A3.521,3.521,0,0,0,293.6,828.687Z" transform="translate(110.146 194.414)" fill="#82d2ef"/>
    <path id="Path_1219" data-name="Path 1219" d="M303.466,830.314a4.447,4.447,0,1,0-4.449-4.445A4.449,4.449,0,0,0,303.466,830.314Z" transform="translate(137.583 193.711)" fill="#82d2ef"/>
    <path id="Path_1220" data-name="Path 1220" d="M313.177,831.589A5.174,5.174,0,1,0,308,826.415,5.173,5.173,0,0,0,313.177,831.589Z" transform="translate(165.177 193.164)" fill="#82d2ef"/>
    <path id="Path_1221" data-name="Path 1221" d="M322.58,832.128a5.481,5.481,0,1,0-5.487-5.479A5.482,5.482,0,0,0,322.58,832.128Z" transform="translate(193.084 192.931)" fill="#82d2ef"/>
    <path id="Path_1222" data-name="Path 1222" d="M331.742,832.128a5.481,5.481,0,1,0-5.483-5.479A5.479,5.479,0,0,0,331.742,832.128Z" transform="translate(221.228 192.931)" fill="#82d2ef"/>
    <path id="Path_1223" data-name="Path 1223" d="M340.67,831.589a5.174,5.174,0,1,0-5.169-5.174A5.177,5.177,0,0,0,340.67,831.589Z" transform="translate(249.605 193.164)" fill="#82d2ef"/>
    <path id="Path_1224" data-name="Path 1224" d="M349.369,830.5a4.553,4.553,0,1,0-4.551-4.555A4.555,4.555,0,0,0,349.369,830.5Z" transform="translate(278.212 193.634)" fill="#82d2ef"/>
    <path id="Path_1225" data-name="Path 1225" d="M357.834,828.861a3.619,3.619,0,1,0-3.623-3.619A3.619,3.619,0,0,0,357.834,828.861Z" transform="translate(307.052 194.337)" fill="#82d2ef"/>
    <path id="Path_1226" data-name="Path 1226" d="M366.373,827.411a2.792,2.792,0,1,0-2.792-2.792A2.791,2.791,0,0,0,366.373,827.411Z" transform="translate(335.822 194.96)" fill="#82d2ef"/>
    <path id="Path_1227" data-name="Path 1227" d="M375.069,826.326a2.174,2.174,0,1,0-2.17-2.174A2.173,2.173,0,0,0,375.069,826.326Z" transform="translate(364.433 195.427)" fill="#82d2ef"/>
    <path id="Path_1228" data-name="Path 1228" d="M383.843,825.415a1.655,1.655,0,1,0-1.652-1.653A1.651,1.651,0,0,0,383.843,825.415Z" transform="translate(392.963 195.817)" fill="#82d2ef"/>
    <path id="Path_1229" data-name="Path 1229" d="M392.7,824.691a1.241,1.241,0,1,0-1.237-1.242A1.242,1.242,0,0,0,392.7,824.691Z" transform="translate(421.417 196.13)" fill="#82d2ef"/>
    <path id="Path_1230" data-name="Path 1230" d="M401.551,823.963a.826.826,0,1,0-.826-.826A.827.827,0,0,0,401.551,823.963Z" transform="translate(449.871 196.443)" fill="#82d2ef"/>
    <path id="Path_1231" data-name="Path 1231" d="M410.563,823.6a.621.621,0,1,0-.623-.619A.622.622,0,0,0,410.563,823.6Z" transform="translate(478.165 196.597)" fill="#82d2ef"/>
    <path id="Path_1232" data-name="Path 1232" d="M419.491,823.056a.309.309,0,1,0-.309-.309A.307.307,0,0,0,419.491,823.056Z" transform="translate(506.541 196.833)" fill="#82d2ef"/>
    <path id="Path_1233" data-name="Path 1233" d="M428.5,822.695a.1.1,0,0,0,.106-.1.105.105,0,0,0-.106-.106.107.107,0,0,0-.1.106A.1.1,0,0,0,428.5,822.695Z" transform="translate(534.839 196.987)" fill="#82d2ef"/>
    <path id="Path_1234" data-name="Path 1234" d="M254.364,831.861a.107.107,0,0,0,.1-.106.1.1,0,0,0-.208,0A.108.108,0,0,0,254.364,831.861Z" transform="translate(0.154 225.13)" fill="#82d2ef"/>
    <path id="Path_1235" data-name="Path 1235" d="M264,832.946a.723.723,0,1,0-.725-.725A.723.723,0,0,0,264,832.946Z" transform="translate(27.827 224.663)" fill="#82d2ef"/>
    <path id="Path_1236" data-name="Path 1236" d="M273.94,834.763A1.758,1.758,0,1,0,272.182,833,1.756,1.756,0,0,0,273.94,834.763Z" transform="translate(55.188 223.881)" fill="#82d2ef"/>
    <path id="Path_1237" data-name="Path 1237" d="M284.043,836.941a3,3,0,1,0-3-3A3,3,0,0,0,284.043,836.941Z" transform="translate(82.395 222.944)" fill="#82d2ef"/>
    <path id="Path_1238" data-name="Path 1238" d="M294.224,839.3a4.347,4.347,0,1,0-4.347-4.347A4.343,4.343,0,0,0,294.224,839.3Z" transform="translate(109.519 221.928)" fill="#82d2ef"/>
    <path id="Path_1239" data-name="Path 1239" d="M304.246,841.3a5.483,5.483,0,1,0-5.483-5.483A5.48,5.48,0,0,0,304.246,841.3Z" transform="translate(136.803 221.071)" fill="#82d2ef"/>
    <path id="Path_1240" data-name="Path 1240" d="M313.954,842.572a6.209,6.209,0,1,0-6.2-6.211A6.207,6.207,0,0,0,313.954,842.572Z" transform="translate(164.4 220.525)" fill="#82d2ef"/>
    <path id="Path_1241" data-name="Path 1241" d="M323.28,842.929a6.413,6.413,0,1,0-6.415-6.415A6.414,6.414,0,0,0,323.28,842.929Z" transform="translate(192.384 220.371)" fill="#82d2ef"/>
    <path id="Path_1242" data-name="Path 1242" d="M332.368,842.75a6.311,6.311,0,1,0-6.313-6.313A6.316,6.316,0,0,0,332.368,842.75Z" transform="translate(220.601 220.448)" fill="#82d2ef"/>
    <path id="Path_1243" data-name="Path 1243" d="M341.217,842.025a5.9,5.9,0,1,0-5.894-5.9A5.891,5.891,0,0,0,341.217,842.025Z" transform="translate(249.058 220.758)" fill="#82d2ef"/>
    <path id="Path_1244" data-name="Path 1244" d="M349.682,840.39a4.966,4.966,0,1,0-4.966-4.966A4.962,4.962,0,0,0,349.682,840.39Z" transform="translate(277.899 221.461)" fill="#82d2ef"/>
    <path id="Path_1245" data-name="Path 1245" d="M357.907,838.209a3.722,3.722,0,1,0-3.72-3.724A3.721,3.721,0,0,0,357.907,838.209Z" transform="translate(306.979 222.401)" fill="#82d2ef"/>
    <path id="Path_1246" data-name="Path 1246" d="M366.373,836.577a2.792,2.792,0,1,0-2.792-2.792A2.789,2.789,0,0,0,366.373,836.577Z" transform="translate(335.822 223.101)" fill="#82d2ef"/>
    <path id="Path_1247" data-name="Path 1247" d="M374.995,835.31a2.07,2.07,0,1,0-2.072-2.072A2.075,2.075,0,0,0,374.995,835.31Z" transform="translate(364.506 223.647)" fill="#82d2ef"/>
    <path id="Path_1248" data-name="Path 1248" d="M383.687,834.22a1.449,1.449,0,1,0-1.445-1.449A1.452,1.452,0,0,0,383.687,834.22Z" transform="translate(393.12 224.114)" fill="#82d2ef"/>
    <path id="Path_1249" data-name="Path 1249" d="M392.462,833.31a.93.93,0,1,0-.928-.932A.933.933,0,0,0,392.462,833.31Z" transform="translate(421.65 224.507)" fill="#82d2ef"/>
    <path id="Path_1250" data-name="Path 1250" d="M401.475,832.946a.723.723,0,1,0-.725-.725A.723.723,0,0,0,401.475,832.946Z" transform="translate(449.947 224.663)" fill="#82d2ef"/>
    <path id="Path_1251" data-name="Path 1251" d="M410.4,832.4a.413.413,0,1,0,0-.826.413.413,0,0,0,0,.826Z" transform="translate(478.324 224.897)" fill="#82d2ef"/>
    <path id="Path_1252" data-name="Path 1252" d="M419.491,832.222a.316.316,0,0,0,.313-.313.312.312,0,0,0-.313-.305.308.308,0,0,0-.309.305A.313.313,0,0,0,419.491,832.222Z" transform="translate(506.541 224.977)" fill="#82d2ef"/>
    <path id="Path_1253" data-name="Path 1253" d="M428.5,831.861a.105.105,0,0,0,.106-.106.1.1,0,0,0-.106-.1.1.1,0,0,0-.1.1A.107.107,0,0,0,428.5,831.861Z" transform="translate(534.839 225.13)" fill="#82d2ef"/>
    <circle id="Ellipse_52" data-name="Ellipse 52" cx="0.207" cy="0.207" r="0.207" transform="translate(254.31 1093.987)" fill="#82d2ef"/>
    <circle id="Ellipse_53" data-name="Ellipse 53" cx="1.033" cy="1.033" r="1.033" transform="translate(290.788 1093.16)" fill="#82d2ef"/>
    <path id="Path_1254" data-name="Path 1254" d="M274.174,844.474a2.07,2.07,0,1,0-2.068-2.068A2.071,2.071,0,0,0,274.174,844.474Z" transform="translate(54.955 251.788)" fill="#82d2ef"/>
    <path id="Path_1255" data-name="Path 1255" d="M284.513,847.2a3.621,3.621,0,1,0-3.623-3.618A3.618,3.618,0,0,0,284.513,847.2Z" transform="translate(81.925 250.618)" fill="#82d2ef"/>
    <path id="Path_1256" data-name="Path 1256" d="M294.768,849.737a5.07,5.07,0,1,0-5.068-5.068A5.071,5.071,0,0,0,294.768,849.737Z" transform="translate(108.976 249.525)" fill="#82d2ef"/>
    <path id="Path_1257" data-name="Path 1257" d="M304.949,852.091a6.411,6.411,0,1,0-6.415-6.411A6.414,6.414,0,0,0,304.949,852.091Z" transform="translate(136.1 248.515)" fill="#82d2ef"/>
    <path id="Path_1258" data-name="Path 1258" d="M314.734,853.547a7.241,7.241,0,1,0-7.237-7.237A7.241,7.241,0,0,0,314.734,853.547Z" transform="translate(163.62 247.885)" fill="#82d2ef"/>
    <path id="Path_1259" data-name="Path 1259" d="M324.06,853.908a7.447,7.447,0,1,0-7.449-7.444A7.443,7.443,0,0,0,324.06,853.908Z" transform="translate(191.604 247.732)" fill="#82d2ef"/>
    <path id="Path_1260" data-name="Path 1260" d="M333.148,853.729a7.345,7.345,0,1,0-7.347-7.343A7.345,7.345,0,0,0,333.148,853.729Z" transform="translate(219.821 247.809)" fill="#82d2ef"/>
    <path id="Path_1261" data-name="Path 1261" d="M341.84,852.644a6.726,6.726,0,1,0-6.72-6.724A6.723,6.723,0,0,0,341.84,852.644Z" transform="translate(248.435 248.275)" fill="#82d2ef"/>
    <path id="Path_1262" data-name="Path 1262" d="M350.072,850.459a5.481,5.481,0,1,0-5.483-5.479A5.485,5.485,0,0,0,350.072,850.459Z" transform="translate(277.509 249.215)" fill="#82d2ef"/>
    <path id="Path_1263" data-name="Path 1263" d="M358.064,847.742a3.932,3.932,0,1,0-3.928-3.932A3.932,3.932,0,0,0,358.064,847.742Z" transform="translate(306.822 250.385)" fill="#82d2ef"/>
    <path id="Path_1264" data-name="Path 1264" d="M366.22,845.381a2.587,2.587,0,1,0-2.589-2.585A2.586,2.586,0,0,0,366.22,845.381Z" transform="translate(335.976 251.398)" fill="#82d2ef"/>
    <path id="Path_1265" data-name="Path 1265" d="M374.679,843.743a1.653,1.653,0,1,0-1.653-1.652A1.651,1.651,0,0,0,374.679,843.743Z" transform="translate(364.823 252.104)" fill="#82d2ef"/>
    <path id="Path_1266" data-name="Path 1266" d="M383.377,842.658a1.034,1.034,0,1,0-1.034-1.034A1.036,1.036,0,0,0,383.377,842.658Z" transform="translate(393.43 252.571)" fill="#82d2ef"/>
    <path id="Path_1267" data-name="Path 1267" d="M392.229,841.932a.621.621,0,1,0-.619-.619A.623.623,0,0,0,392.229,841.932Z" transform="translate(421.883 252.881)" fill="#82d2ef"/>
    <path id="Path_1268" data-name="Path 1268" d="M401.238,841.568a.413.413,0,1,0-.411-.411A.413.413,0,0,0,401.238,841.568Z" transform="translate(450.184 253.037)" fill="#82d2ef"/>
    <path id="Path_1269" data-name="Path 1269" d="M410.326,841.386a.306.306,0,0,0,.31-.305.309.309,0,1,0-.619,0A.306.306,0,0,0,410.326,841.386Z" transform="translate(478.401 253.114)" fill="#82d2ef"/>
    <circle id="Ellipse_54" data-name="Ellipse 54" cx="0.207" cy="0.207" r="0.207" transform="translate(925.827 1093.987)" fill="#82d2ef"/>
    <path id="Path_1270" data-name="Path 1270" d="M428.5,841.029a.1.1,0,0,0,.106-.1.106.106,0,0,0-.106-.11.108.108,0,0,0-.1.11A.1.1,0,0,0,428.5,841.029Z" transform="translate(534.839 253.268)" fill="#82d2ef"/>
    <path id="Path_1271" data-name="Path 1271" d="M254.517,850.552a.309.309,0,1,0-.309-.31A.309.309,0,0,0,254.517,850.552Z" transform="translate(0 281.258)" fill="#82d2ef"/>
    <circle id="Ellipse_55" data-name="Ellipse 55" cx="1.137" cy="1.137" r="1.137" transform="translate(290.685 1130.362)" fill="#82d2ef"/>
    <path id="Path_1272" data-name="Path 1272" d="M274.487,854.365A2.483,2.483,0,1,0,272,851.882,2.48,2.48,0,0,0,274.487,854.365Z" transform="translate(54.641 279.618)" fill="#82d2ef"/>
    <circle id="Ellipse_56" data-name="Ellipse 56" cx="4.138" cy="4.138" r="4.138" transform="translate(362.299 1127.361)" fill="#82d2ef"/>
    <path id="Path_1273" data-name="Path 1273" d="M295.241,859.992a5.69,5.69,0,1,0-5.695-5.691A5.693,5.693,0,0,0,295.241,859.992Z" transform="translate(108.503 277.199)" fill="#82d2ef"/>
    <path id="Path_1274" data-name="Path 1274" d="M305.572,862.716a7.243,7.243,0,1,0-7.241-7.241A7.244,7.244,0,0,0,305.572,862.716Z" transform="translate(135.477 276.026)" fill="#82d2ef"/>
    <path id="Path_1275" data-name="Path 1275" d="M315.44,864.348a8.174,8.174,0,1,0-8.173-8.174A8.174,8.174,0,0,0,315.44,864.348Z" transform="translate(162.914 275.326)" fill="#82d2ef"/>
    <path id="Path_1276" data-name="Path 1276" d="M324.84,864.891a8.483,8.483,0,1,0-8.483-8.483A8.485,8.485,0,0,0,324.84,864.891Z" transform="translate(190.824 275.092)" fill="#82d2ef"/>
    <circle id="Ellipse_57" data-name="Ellipse 57" cx="8.379" cy="8.379" r="8.379" transform="translate(544.59 1123.119)" fill="#82d2ef"/>
    <path id="Path_1277" data-name="Path 1277" d="M342.546,863.441a7.656,7.656,0,1,0-7.656-7.657A7.658,7.658,0,0,0,342.546,863.441Z" transform="translate(247.729 275.716)" fill="#82d2ef"/>
    <path id="Path_1278" data-name="Path 1278" d="M350.7,861.081a6.311,6.311,0,1,0-6.313-6.313A6.314,6.314,0,0,0,350.7,861.081Z" transform="translate(276.882 276.732)" fill="#82d2ef"/>
    <path id="Path_1279" data-name="Path 1279" d="M358.531,858a4.553,4.553,0,1,0-4.547-4.551A4.554,4.554,0,0,0,358.531,858Z" transform="translate(306.355 278.055)" fill="#82d2ef"/>
    <path id="Path_1280" data-name="Path 1280" d="M366.22,854.547a2.587,2.587,0,1,0-2.589-2.585A2.583,2.583,0,0,0,366.22,854.547Z" transform="translate(335.976 279.538)" fill="#82d2ef"/>
    <circle id="Ellipse_58" data-name="Ellipse 58" cx="1.137" cy="1.137" r="1.137" transform="translate(738.365 1130.362)" fill="#82d2ef"/>
    <path id="Path_1281" data-name="Path 1281" d="M382.987,850.916a.517.517,0,1,0-.517-.517A.515.515,0,0,0,382.987,850.916Z" transform="translate(393.82 281.101)" fill="#82d2ef"/>
    <path id="Path_1282" data-name="Path 1282" d="M392,850.552a.309.309,0,1,0-.309-.31A.313.313,0,0,0,392,850.552Z" transform="translate(422.117 281.258)" fill="#82d2ef"/>
    <path id="Path_1283" data-name="Path 1283" d="M401.085,850.373a.209.209,0,0,0,.208-.208.208.208,0,0,0-.415,0A.209.209,0,0,0,401.085,850.373Z" transform="translate(450.337 281.335)" fill="#82d2ef"/>
    <path id="Path_1284" data-name="Path 1284" d="M410.17,850.191a.1.1,0,1,0,0-.208.1.1,0,0,0,0,.208Z" transform="translate(478.558 281.411)" fill="#82d2ef"/>
    <path id="Path_1285" data-name="Path 1285" d="M419.335,850.191a.1.1,0,1,0-.1-.1A.107.107,0,0,0,419.335,850.191Z" transform="translate(506.698 281.411)" fill="#82d2ef"/>
    <path id="Path_1286" data-name="Path 1286" d="M428.5,850.191a.1.1,0,1,0,0-.208.1.1,0,0,0,0,.208Z" transform="translate(534.839 281.411)" fill="#82d2ef"/>
    <path id="Path_1287" data-name="Path 1287" d="M254.517,859.717a.306.306,0,0,0,.309-.306.309.309,0,1,0-.619,0A.306.306,0,0,0,254.517,859.717Z" transform="translate(0 309.398)" fill="#82d2ef"/>
    <path id="Path_1288" data-name="Path 1288" d="M264.385,861.352a1.241,1.241,0,1,0-1.241-1.237A1.238,1.238,0,0,0,264.385,861.352Z" transform="translate(27.437 308.695)" fill="#82d2ef"/>
    <path id="Path_1289" data-name="Path 1289" d="M274.641,863.894a2.691,2.691,0,1,0-2.687-2.687A2.69,2.69,0,0,0,274.641,863.894Z" transform="translate(54.488 307.602)" fill="#82d2ef"/>
    <path id="Path_1290" data-name="Path 1290" d="M285.139,866.979a4.449,4.449,0,1,0-4.453-4.445A4.452,4.452,0,0,0,285.139,866.979Z" transform="translate(81.299 306.276)" fill="#82d2ef"/>
    <path id="Path_1291" data-name="Path 1291" d="M295.7,870.242a6.309,6.309,0,1,0-6.309-6.305A6.312,6.312,0,0,0,295.7,870.242Z" transform="translate(108.039 304.872)" fill="#82d2ef"/>
    <path id="Path_1292" data-name="Path 1292" d="M306.2,873.33a8.07,8.07,0,1,0-8.071-8.064A8.065,8.065,0,0,0,306.2,873.33Z" transform="translate(134.85 303.543)" fill="#82d2ef"/>
    <path id="Path_1293" data-name="Path 1293" d="M316.3,875.509a9.311,9.311,0,1,0-9.309-9.309A9.307,9.307,0,0,0,316.3,875.509Z" transform="translate(162.057 302.61)" fill="#82d2ef"/>
    <path id="Path_1294" data-name="Path 1294" d="M325.7,876.052a9.62,9.62,0,1,0-9.623-9.619A9.621,9.621,0,0,0,325.7,876.052Z" transform="translate(189.965 302.376)" fill="#82d2ef"/>
    <path id="Path_1295" data-name="Path 1295" d="M334.861,876.052a9.62,9.62,0,1,0-9.618-9.619A9.619,9.619,0,0,0,334.861,876.052Z" transform="translate(218.108 302.376)" fill="#82d2ef"/>
    <path id="Path_1296" data-name="Path 1296" d="M343.636,875.141a9.1,9.1,0,1,0-9.1-9.1A9.1,9.1,0,0,0,343.636,875.141Z" transform="translate(246.639 302.766)" fill="#82d2ef"/>
    <path id="Path_1297" data-name="Path 1297" d="M351.711,872.606a7.656,7.656,0,1,0-7.656-7.652A7.655,7.655,0,0,0,351.711,872.606Z" transform="translate(275.869 303.856)" fill="#82d2ef"/>
    <path id="Path_1298" data-name="Path 1298" d="M359.547,869.514a5.894,5.894,0,1,0-5.894-5.89A5.892,5.892,0,0,0,359.547,869.514Z" transform="translate(305.339 305.186)" fill="#82d2ef"/>
    <path id="Path_1299" data-name="Path 1299" d="M367.386,866.432a4.138,4.138,0,1,0-4.136-4.132A4.139,4.139,0,0,0,367.386,866.432Z" transform="translate(334.809 306.509)" fill="#82d2ef"/>
    <path id="Path_1300" data-name="Path 1300" d="M373.822,860.081a.517.517,0,1,0-.517-.513A.517.517,0,0,0,373.822,860.081Z" transform="translate(365.679 309.242)" fill="#82d2ef"/>
    <path id="Path_1301" data-name="Path 1301" d="M382.674,859.355a.1.1,0,0,0,.106-.1.1.1,0,1,0-.208,0A.1.1,0,0,0,382.674,859.355Z" transform="translate(394.133 309.552)" fill="#82d2ef"/>
    <path id="Path_1302" data-name="Path 1302" d="M254.517,868.882a.307.307,0,0,0,.309-.309.309.309,0,0,0-.619,0A.307.307,0,0,0,254.517,868.882Z" transform="translate(0 337.539)" fill="#82d2ef"/>
    <path id="Path_1303" data-name="Path 1303" d="M264.385,870.517a1.242,1.242,0,1,0-1.241-1.242A1.241,1.241,0,0,0,264.385,870.517Z" transform="translate(27.437 336.836)" fill="#82d2ef"/>
    <path id="Path_1304" data-name="Path 1304" d="M274.641,873.056a2.689,2.689,0,1,0-2.687-2.691A2.691,2.691,0,0,0,274.641,873.056Z" transform="translate(54.488 335.746)" fill="#82d2ef"/>
    <path id="Path_1305" data-name="Path 1305" d="M285.139,876.145a4.449,4.449,0,1,0-4.453-4.453A4.456,4.456,0,0,0,285.139,876.145Z" transform="translate(81.299 334.419)" fill="#82d2ef"/>
    <path id="Path_1306" data-name="Path 1306" d="M295.784,879.59a6.413,6.413,0,1,0-6.415-6.415A6.411,6.411,0,0,0,295.784,879.59Z" transform="translate(107.959 332.936)" fill="#82d2ef"/>
    <path id="Path_1307" data-name="Path 1307" d="M306.585,883.4A8.587,8.587,0,1,0,298,874.818,8.581,8.581,0,0,0,306.585,883.4Z" transform="translate(134.463 331.294)" fill="#82d2ef"/>
    <path id="Path_1308" data-name="Path 1308" d="M316.92,886.124a10.137,10.137,0,1,0-10.135-10.14A10.135,10.135,0,0,0,316.92,886.124Z" transform="translate(161.434 330.127)" fill="#82d2ef"/>
    <path id="Path_1309" data-name="Path 1309" d="M326.713,887.573a10.964,10.964,0,1,0-10.966-10.966A10.964,10.964,0,0,0,326.713,887.573Z" transform="translate(188.951 329.504)" fill="#82d2ef"/>
    <path id="Path_1310" data-name="Path 1310" d="M335.878,887.573a10.964,10.964,0,1,0-10.966-10.966A10.962,10.962,0,0,0,335.878,887.573Z" transform="translate(217.092 329.504)" fill="#82d2ef"/>
    <path id="Path_1311" data-name="Path 1311" d="M344.806,887.031a10.654,10.654,0,1,0-10.652-10.656A10.652,10.652,0,0,0,344.806,887.031Z" transform="translate(245.469 329.737)" fill="#82d2ef"/>
    <path id="Path_1312" data-name="Path 1312" d="M353.115,885.038a9.519,9.519,0,1,0-9.517-9.521A9.519,9.519,0,0,0,353.115,885.038Z" transform="translate(274.466 330.593)" fill="#82d2ef"/>
    <path id="Path_1313" data-name="Path 1313" d="M361.11,882.314a7.966,7.966,0,1,0-7.966-7.966A7.969,7.969,0,0,0,361.11,882.314Z" transform="translate(303.776 331.763)" fill="#82d2ef"/>
    <path id="Path_1314" data-name="Path 1314" d="M368.793,878.865a6,6,0,1,0-6-6A6,6,0,0,0,368.793,878.865Z" transform="translate(333.403 333.246)" fill="#82d2ef"/>
    <path id="Path_1315" data-name="Path 1315" d="M375.775,873.784a3.1,3.1,0,1,0-3.106-3.106A3.1,3.1,0,0,0,375.775,873.784Z" transform="translate(363.727 335.433)" fill="#82d2ef"/>
    <path id="Path_1316" data-name="Path 1316" d="M383.454,870.335a1.138,1.138,0,1,0-1.136-1.14A1.14,1.14,0,0,0,383.454,870.335Z" transform="translate(393.353 336.915)" fill="#82d2ef"/>
    <path id="Path_1317" data-name="Path 1317" d="M392.305,869.611a.725.725,0,1,0-.72-.729A.724.724,0,0,0,392.305,869.611Z" transform="translate(421.807 337.229)" fill="#82d2ef"/>
    <path id="Path_1318" data-name="Path 1318" d="M401.395,869.424a.619.619,0,1,0-.619-.619A.619.619,0,0,0,401.395,869.424Z" transform="translate(450.027 337.305)" fill="#82d2ef"/>
    <path id="Path_1319" data-name="Path 1319" d="M410.483,869.25a.519.519,0,1,0-.517-.521A.519.519,0,0,0,410.483,869.25Z" transform="translate(478.244 337.382)" fill="#82d2ef"/>
    <circle id="Ellipse_59" data-name="Ellipse 59" cx="0.31" cy="0.31" r="0.31" transform="translate(925.724 1205.8)" fill="#82d2ef"/>
    <path id="Path_1320" data-name="Path 1320" d="M428.5,868.521a.1.1,0,1,0-.1-.106A.1.1,0,0,0,428.5,868.521Z" transform="translate(534.839 337.695)" fill="#82d2ef"/>
    <path id="Path_1321" data-name="Path 1321" d="M254.441,877.869a.208.208,0,0,0,0-.415.208.208,0,0,0,0,.415Z" transform="translate(0.077 365.759)" fill="#82d2ef"/>
    <path id="Path_1322" data-name="Path 1322" d="M264.385,879.686a1.244,1.244,0,1,0-1.241-1.242A1.241,1.241,0,0,0,264.385,879.686Z" transform="translate(27.437 364.976)" fill="#82d2ef"/>
    <path id="Path_1323" data-name="Path 1323" d="M274.564,882.046a2.589,2.589,0,1,0-2.585-2.589A2.593,2.593,0,0,0,274.564,882.046Z" transform="translate(54.565 363.963)" fill="#82d2ef"/>
    <path id="Path_1324" data-name="Path 1324" d="M285.139,885.313a4.451,4.451,0,1,0-4.453-4.449A4.453,4.453,0,0,0,285.139,885.313Z" transform="translate(81.299 362.557)" fill="#82d2ef"/>
    <path id="Path_1325" data-name="Path 1325" d="M295.784,888.755a6.413,6.413,0,1,0-6.415-6.411A6.41,6.41,0,0,0,295.784,888.755Z" transform="translate(107.959 361.077)" fill="#82d2ef"/>
    <path id="Path_1326" data-name="Path 1326" d="M306.585,892.568A8.587,8.587,0,1,0,298,883.983,8.583,8.583,0,0,0,306.585,892.568Z" transform="translate(134.463 359.437)" fill="#82d2ef"/>
    <path id="Path_1327" data-name="Path 1327" d="M317.313,896.2a10.654,10.654,0,1,0-10.656-10.652A10.655,10.655,0,0,0,317.313,896.2Z" transform="translate(161.041 357.878)" fill="#82d2ef"/>
    <path id="Path_1328" data-name="Path 1328" d="M327.572,898.742a12.105,12.105,0,1,0-12.105-12.105A12.105,12.105,0,0,0,327.572,898.742Z" transform="translate(188.092 356.784)" fill="#82d2ef"/>
    <circle id="Ellipse_60" data-name="Ellipse 60" cx="12.517" cy="12.517" r="12.517" transform="translate(540.452 1230.903)" fill="#82d2ef"/>
    <circle id="Ellipse_61" data-name="Ellipse 61" cx="12.621" cy="12.621" r="12.621" transform="translate(577.654 1230.799)" fill="#82d2ef"/>
    <path id="Path_1329" data-name="Path 1329" d="M354.911,898.374a11.9,11.9,0,1,0-11.9-11.894A11.9,11.9,0,0,0,354.911,898.374Z" transform="translate(272.67 356.941)" fill="#82d2ef"/>
    <path id="Path_1330" data-name="Path 1330" d="M363.136,896.2a10.654,10.654,0,1,0-10.652-10.652A10.655,10.655,0,0,0,363.136,896.2Z" transform="translate(301.75 357.878)" fill="#82d2ef"/>
    <path id="Path_1331" data-name="Path 1331" d="M370.825,892.751a8.69,8.69,0,1,0-8.694-8.691A8.691,8.691,0,0,0,370.825,892.751Z" transform="translate(331.37 359.36)" fill="#82d2ef"/>
    <path id="Path_1332" data-name="Path 1332" d="M378.191,888.576a6.311,6.311,0,1,0-6.309-6.309A6.309,6.309,0,0,0,378.191,888.576Z" transform="translate(361.31 361.153)" fill="#82d2ef"/>
    <circle id="Ellipse_62" data-name="Ellipse 62" cx="4.138" cy="4.138" r="4.138" transform="translate(772.67 1239.282)" fill="#82d2ef"/>
    <circle id="Ellipse_63" data-name="Ellipse 63" cx="3.001" cy="3.001" r="3.001" transform="translate(811.112 1240.419)" fill="#82d2ef"/>
    <path id="Path_1333" data-name="Path 1333" d="M402.644,881.5a2.275,2.275,0,1,0-2.275-2.271A2.273,2.273,0,0,0,402.644,881.5Z" transform="translate(448.777 364.196)" fill="#82d2ef"/>
    <path id="Path_1334" data-name="Path 1334" d="M411.339,880.407a1.655,1.655,0,1,0-1.652-1.653A1.655,1.655,0,0,0,411.339,880.407Z" transform="translate(477.388 364.666)" fill="#82d2ef"/>
    <path id="Path_1335" data-name="Path 1335" d="M420.038,879.322A1.036,1.036,0,1,0,419,878.288,1.033,1.033,0,0,0,420.038,879.322Z" transform="translate(505.995 365.133)" fill="#82d2ef"/>
    <path id="Path_1336" data-name="Path 1336" d="M428.733,878.229a.413.413,0,1,0-.411-.411A.411.411,0,0,0,428.733,878.229Z" transform="translate(534.605 365.602)" fill="#82d2ef"/>
    <path id="Path_1337" data-name="Path 1337" d="M254.441,887.034a.211.211,0,0,0,.208-.208.209.209,0,0,0-.208-.208.206.206,0,0,0-.208.208A.208.208,0,0,0,254.441,887.034Z" transform="translate(0.077 393.9)" fill="#82d2ef"/>
    <path id="Path_1338" data-name="Path 1338" d="M264.152,888.3a.93.93,0,1,0-.932-.928A.926.926,0,0,0,264.152,888.3Z" transform="translate(27.671 393.353)" fill="#82d2ef"/>
    <path id="Path_1339" data-name="Path 1339" d="M274.33,890.665a2.277,2.277,0,1,0-2.275-2.275A2.274,2.274,0,0,0,274.33,890.665Z" transform="translate(54.798 392.337)" fill="#82d2ef"/>
    <circle id="Ellipse_64" data-name="Ellipse 64" cx="4.138" cy="4.138" r="4.138" transform="translate(362.299 1276.588)" fill="#82d2ef"/>
    <path id="Path_1340" data-name="Path 1340" d="M295.784,897.92a6.413,6.413,0,1,0-6.415-6.411A6.41,6.41,0,0,0,295.784,897.92Z" transform="translate(107.959 389.217)" fill="#82d2ef"/>
    <path id="Path_1341" data-name="Path 1341" d="M306.585,901.73A8.585,8.585,0,1,0,298,893.146,8.586,8.586,0,0,0,306.585,901.73Z" transform="translate(134.463 387.58)" fill="#82d2ef"/>
    <path id="Path_1342" data-name="Path 1342" d="M317.39,905.546a10.76,10.76,0,1,0-10.758-10.758A10.756,10.756,0,0,0,317.39,905.546Z" transform="translate(160.964 385.938)" fill="#82d2ef"/>
    <path id="Path_1343" data-name="Path 1343" d="M328.039,908.992a12.724,12.724,0,1,0-12.724-12.724A12.727,12.727,0,0,0,328.039,908.992Z" transform="translate(187.625 384.458)" fill="#82d2ef"/>
    <path id="Path_1344" data-name="Path 1344" d="M338.22,911.352a14.069,14.069,0,1,0-14.071-14.067A14.066,14.066,0,0,0,338.22,911.352Z" transform="translate(214.749 383.442)" fill="#82d2ef"/>
    <circle id="Ellipse_65" data-name="Ellipse 65" cx="14.483" cy="14.483" r="14.483" transform="translate(575.792 1266.243)" fill="#82d2ef"/>
    <path id="Path_1345" data-name="Path 1345" d="M356.861,912.084A14.487,14.487,0,1,0,342.378,897.6,14.487,14.487,0,0,0,356.861,912.084Z" transform="translate(270.72 383.129)" fill="#82d2ef"/>
    <path id="Path_1346" data-name="Path 1346" d="M365.556,910.988a13.862,13.862,0,1,0-13.86-13.86A13.861,13.861,0,0,0,365.556,910.988Z" transform="translate(299.33 383.598)" fill="#82d2ef"/>
    <circle id="Ellipse_66" data-name="Ellipse 66" cx="12.311" cy="12.311" r="12.311" transform="translate(689.886 1268.415)" fill="#82d2ef"/>
    <path id="Path_1347" data-name="Path 1347" d="M381.08,904.454a10.137,10.137,0,1,0-10.139-10.135A10.134,10.134,0,0,0,381.08,904.454Z" transform="translate(358.421 386.408)" fill="#82d2ef"/>
    <path id="Path_1348" data-name="Path 1348" d="M388.526,900.466a7.864,7.864,0,1,0-7.86-7.864A7.864,7.864,0,0,0,388.526,900.466Z" transform="translate(388.281 388.124)" fill="#82d2ef"/>
    <path id="Path_1349" data-name="Path 1349" d="M396.208,897.013a5.9,5.9,0,1,0-5.894-5.894A5.893,5.893,0,0,0,396.208,897.013Z" transform="translate(417.904 389.607)" fill="#82d2ef"/>
    <circle id="Ellipse_67" data-name="Ellipse 67" cx="4.241" cy="4.241" r="4.241" transform="translate(847.181 1276.485)" fill="#82d2ef"/>
    <path id="Path_1350" data-name="Path 1350" d="M412.279,891.754a2.9,2.9,0,1,0-2.9-2.9A2.9,2.9,0,0,0,412.279,891.754Z" transform="translate(476.448 391.87)" fill="#82d2ef"/>
    <path id="Path_1351" data-name="Path 1351" d="M420.581,889.758A1.76,1.76,0,1,0,418.827,888,1.76,1.76,0,0,0,420.581,889.758Z" transform="translate(505.451 392.727)" fill="#82d2ef"/>
    <path id="Path_1352" data-name="Path 1352" d="M428.966,887.944a.727.727,0,1,0-.72-.725A.721.721,0,0,0,428.966,887.944Z" transform="translate(534.372 393.507)" fill="#82d2ef"/>
    <circle id="Ellipse_68" data-name="Ellipse 68" cx="0.103" cy="0.103" r="0.103" transform="translate(254.413 1317.928)" fill="#82d2ef"/>
    <circle id="Ellipse_69" data-name="Ellipse 69" cx="0.723" cy="0.723" r="0.723" transform="translate(291.099 1317.308)" fill="#82d2ef"/>
    <path id="Path_1353" data-name="Path 1353" d="M274.1,899.281a1.964,1.964,0,1,0-1.966-1.966A1.965,1.965,0,0,0,274.1,899.281Z" transform="translate(55.031 420.717)" fill="#82d2ef"/>
    <path id="Path_1354" data-name="Path 1354" d="M284.513,902.19a3.623,3.623,0,1,0-3.623-3.622A3.622,3.622,0,0,0,284.513,902.19Z" transform="translate(81.925 419.464)" fill="#82d2ef"/>
    <path id="Path_1355" data-name="Path 1355" d="M295.317,906a5.8,5.8,0,1,0-5.8-5.8A5.8,5.8,0,0,0,295.317,906Z" transform="translate(108.426 417.824)" fill="#82d2ef"/>
    <path id="Path_1356" data-name="Path 1356" d="M306.272,910.174A8.173,8.173,0,1,0,298.1,902,8.179,8.179,0,0,0,306.272,910.174Z" transform="translate(134.777 416.031)" fill="#82d2ef"/>
    <path id="Path_1357" data-name="Path 1357" d="M317.233,914.348a10.553,10.553,0,1,0-10.551-10.554A10.552,10.552,0,0,0,317.233,914.348Z" transform="translate(161.121 414.238)" fill="#82d2ef"/>
    <path id="Path_1358" data-name="Path 1358" d="M328.039,918.154a12.722,12.722,0,1,0-12.724-12.724A12.724,12.724,0,0,0,328.039,918.154Z" transform="translate(187.625 412.602)" fill="#82d2ef"/>
    <path id="Path_1359" data-name="Path 1359" d="M338.607,921.425a14.586,14.586,0,1,0-14.584-14.588A14.59,14.59,0,0,0,338.607,921.425Z" transform="translate(214.362 411.195)" fill="#82d2ef"/>
    <path id="Path_1360" data-name="Path 1360" d="M348.945,924.148a16.139,16.139,0,1,0-16.139-16.139A16.141,16.141,0,0,0,348.945,924.148Z" transform="translate(241.33 410.022)" fill="#82d2ef"/>
    <path id="Path_1361" data-name="Path 1361" d="M358.187,924.327a16.241,16.241,0,1,0-16.241-16.241A16.239,16.239,0,0,0,358.187,924.327Z" transform="translate(269.394 409.946)" fill="#82d2ef"/>
    <path id="Path_1362" data-name="Path 1362" d="M367.349,924.327a16.241,16.241,0,1,0-16.237-16.241A16.239,16.239,0,0,0,367.349,924.327Z" transform="translate(297.537 409.946)" fill="#82d2ef"/>
    <path id="Path_1363" data-name="Path 1363" d="M376.518,924.327a16.241,16.241,0,1,0-16.241-16.241A16.242,16.242,0,0,0,376.518,924.327Z" transform="translate(325.678 409.946)" fill="#82d2ef"/>
    <path id="Path_1364" data-name="Path 1364" d="M384.436,921.425a14.586,14.586,0,1,0-14.588-14.588A14.588,14.588,0,0,0,384.436,921.425Z" transform="translate(355.065 411.195)" fill="#82d2ef"/>
    <path id="Path_1365" data-name="Path 1365" d="M391.1,915.614a11.275,11.275,0,1,0-11.275-11.271A11.274,11.274,0,0,0,391.1,915.614Z" transform="translate(385.705 413.689)" fill="#82d2ef"/>
    <path id="Path_1366" data-name="Path 1366" d="M398.158,910.717a8.483,8.483,0,1,0-8.479-8.483A8.48,8.48,0,0,0,398.158,910.717Z" transform="translate(415.954 415.798)" fill="#82d2ef"/>
    <path id="Path_1367" data-name="Path 1367" d="M405.377,906.175a5.894,5.894,0,1,0-5.9-5.894A5.892,5.892,0,0,0,405.377,906.175Z" transform="translate(446.045 417.751)" fill="#82d2ef"/>
    <path id="Path_1368" data-name="Path 1368" d="M412.979,902.547a3.826,3.826,0,1,0-3.826-3.826A3.828,3.828,0,0,0,412.979,902.547Z" transform="translate(475.748 419.311)" fill="#82d2ef"/>
    <path id="Path_1369" data-name="Path 1369" d="M420.894,899.645a2.172,2.172,0,1,0-2.169-2.174A2.177,2.177,0,0,0,420.894,899.645Z" transform="translate(505.138 420.56)" fill="#82d2ef"/>
    <path id="Path_1370" data-name="Path 1370" d="M429.123,897.466a.93.93,0,1,0-.928-.928A.932.932,0,0,0,429.123,897.466Z" transform="translate(534.215 421.494)" fill="#82d2ef"/>
    <path id="Path_1371" data-name="Path 1371" d="M263.762,905.724a.407.407,0,0,0,.411-.411.413.413,0,1,0-.411.411Z" transform="translate(28.061 450.024)" fill="#82d2ef"/>
    <path id="Path_1372" data-name="Path 1372" d="M273.707,907.539a1.447,1.447,0,1,0-1.449-1.449A1.45,1.45,0,0,0,273.707,907.539Z" transform="translate(55.421 449.247)" fill="#82d2ef"/>
    <path id="Path_1373" data-name="Path 1373" d="M283.966,910.081a2.9,2.9,0,1,0-2.9-2.9A2.9,2.9,0,0,0,283.966,910.081Z" transform="translate(82.472 448.154)" fill="#82d2ef"/>
    <path id="Path_1374" data-name="Path 1374" d="M294.691,913.716a4.968,4.968,0,1,0-4.966-4.97A4.968,4.968,0,0,0,294.691,913.716Z" transform="translate(109.053 446.591)" fill="#82d2ef"/>
    <path id="Path_1375" data-name="Path 1375" d="M305.492,917.522a7.137,7.137,0,1,0-7.135-7.14A7.138,7.138,0,0,0,305.492,917.522Z" transform="translate(135.557 444.955)" fill="#82d2ef"/>
    <path id="Path_1376" data-name="Path 1376" d="M316.61,922.063a9.726,9.726,0,1,0-9.724-9.728A9.728,9.728,0,0,0,316.61,922.063Z" transform="translate(161.744 443.002)" fill="#82d2ef"/>
    <path id="Path_1377" data-name="Path 1377" d="M327.572,926.237a12.105,12.105,0,1,0-12.105-12.105A12.105,12.105,0,0,0,327.572,926.237Z" transform="translate(188.092 441.206)" fill="#82d2ef"/>
    <path id="Path_1378" data-name="Path 1378" d="M338.377,930.047A14.277,14.277,0,1,0,324.1,915.768,14.278,14.278,0,0,0,338.377,930.047Z" transform="translate(214.592 439.569)" fill="#82d2ef"/>
    <path id="Path_1379" data-name="Path 1379" d="M349.022,933.5a16.243,16.243,0,1,0-16.241-16.245A16.243,16.243,0,0,0,349.022,933.5Z" transform="translate(241.253 438.086)" fill="#82d2ef"/>
    <path id="Path_1380" data-name="Path 1380" d="M358.187,933.5a16.243,16.243,0,1,0-16.241-16.245A16.243,16.243,0,0,0,358.187,933.5Z" transform="translate(269.394 438.086)" fill="#82d2ef"/>
    <path id="Path_1381" data-name="Path 1381" d="M367.349,933.5a16.243,16.243,0,1,0-16.237-16.245A16.243,16.243,0,0,0,367.349,933.5Z" transform="translate(297.537 438.086)" fill="#82d2ef"/>
    <path id="Path_1382" data-name="Path 1382" d="M376.518,933.5a16.243,16.243,0,1,0-16.241-16.245A16.245,16.245,0,0,0,376.518,933.5Z" transform="translate(325.678 438.086)" fill="#82d2ef"/>
    <path id="Path_1383" data-name="Path 1383" d="M385.683,933.5a16.243,16.243,0,1,0-16.241-16.245A16.243,16.243,0,0,0,385.683,933.5Z" transform="translate(353.818 438.086)" fill="#82d2ef"/>
    <path id="Path_1384" data-name="Path 1384" d="M392.195,927.322A12.724,12.724,0,1,0,379.471,914.6,12.724,12.724,0,0,0,392.195,927.322Z" transform="translate(384.612 440.739)" fill="#82d2ef"/>
    <path id="Path_1385" data-name="Path 1385" d="M398.781,921.335a9.311,9.311,0,1,0-9.3-9.313A9.308,9.308,0,0,0,398.781,921.335Z" transform="translate(415.331 443.315)" fill="#82d2ef"/>
    <path id="Path_1386" data-name="Path 1386" d="M405.69,916.072a6.311,6.311,0,1,0-6.313-6.313A6.313,6.313,0,0,0,405.69,916.072Z" transform="translate(445.732 445.578)" fill="#82d2ef"/>
    <path id="Path_1387" data-name="Path 1387" d="M413.059,911.9a3.932,3.932,0,1,0-3.932-3.932A3.932,3.932,0,0,0,413.059,911.9Z" transform="translate(475.668 447.371)" fill="#82d2ef"/>
    <path id="Path_1388" data-name="Path 1388" d="M420.974,908.992a2.276,2.276,0,1,0-2.275-2.276A2.278,2.278,0,0,0,420.974,908.992Z" transform="translate(505.058 448.621)" fill="#82d2ef"/>
    <path id="Path_1389" data-name="Path 1389" d="M429.123,906.635a.932.932,0,1,0-.928-.932A.933.933,0,0,0,429.123,906.635Z" transform="translate(534.215 449.634)" fill="#82d2ef"/>
    <path id="Path_1390" data-name="Path 1390" d="M263.606,914.533a.21.21,0,1,0-.208-.207A.211.211,0,0,0,263.606,914.533Z" transform="translate(28.217 478.321)" fill="#82d2ef"/>
    <path id="Path_1391" data-name="Path 1391" d="M273.237,915.619a.828.828,0,1,0-.826-.826A.831.831,0,0,0,273.237,915.619Z" transform="translate(55.891 477.854)" fill="#82d2ef"/>
    <path id="Path_1392" data-name="Path 1392" d="M283.343,917.8a2.07,2.07,0,1,0-2.072-2.068A2.071,2.071,0,0,0,283.343,917.8Z" transform="translate(83.095 476.918)" fill="#82d2ef"/>
    <path id="Path_1393" data-name="Path 1393" d="M293.754,920.7a3.723,3.723,0,1,0-3.724-3.72A3.72,3.72,0,0,0,293.754,920.7Z" transform="translate(109.989 475.671)" fill="#82d2ef"/>
    <path id="Path_1394" data-name="Path 1394" d="M304.323,923.963a5.585,5.585,0,1,0-5.585-5.584A5.587,5.587,0,0,0,304.323,923.963Z" transform="translate(136.726 474.268)" fill="#82d2ef"/>
    <path id="Path_1395" data-name="Path 1395" d="M315.361,928.318a8.068,8.068,0,1,0-8.068-8.063A8.062,8.062,0,0,0,315.361,928.318Z" transform="translate(162.994 472.392)" fill="#82d2ef"/>
    <path id="Path_1396" data-name="Path 1396" d="M326.323,932.492a10.447,10.447,0,1,0-10.449-10.445A10.443,10.443,0,0,0,326.323,932.492Z" transform="translate(189.341 470.599)" fill="#82d2ef"/>
    <path id="Path_1397" data-name="Path 1397" d="M337.361,936.852a12.932,12.932,0,1,0-12.932-12.932A12.935,12.935,0,0,0,337.361,936.852Z" transform="translate(215.609 468.726)" fill="#82d2ef"/>
    <path id="Path_1398" data-name="Path 1398" d="M348.086,940.479a15,15,0,1,0-15-15A15,15,0,0,0,348.086,940.479Z" transform="translate(242.19 467.163)" fill="#82d2ef"/>
    <path id="Path_1399" data-name="Path 1399" d="M358.187,942.654a16.239,16.239,0,1,0-16.241-16.237A16.238,16.238,0,0,0,358.187,942.654Z" transform="translate(269.394 466.23)" fill="#82d2ef"/>
    <path id="Path_1400" data-name="Path 1400" d="M367.349,942.654a16.239,16.239,0,1,0-16.237-16.237A16.238,16.238,0,0,0,367.349,942.654Z" transform="translate(297.537 466.23)" fill="#82d2ef"/>
    <path id="Path_1401" data-name="Path 1401" d="M376.518,942.654a16.239,16.239,0,1,0-16.241-16.237A16.241,16.241,0,0,0,376.518,942.654Z" transform="translate(325.678 466.23)" fill="#82d2ef"/>
    <path id="Path_1402" data-name="Path 1402" d="M385.683,942.654a16.239,16.239,0,1,0-16.241-16.237A16.238,16.238,0,0,0,385.683,942.654Z" transform="translate(353.818 466.23)" fill="#82d2ef"/>
    <path id="Path_1403" data-name="Path 1403" d="M392.195,936.488a12.724,12.724,0,1,0-12.724-12.724A12.724,12.724,0,0,0,392.195,936.488Z" transform="translate(384.612 468.882)" fill="#82d2ef"/>
    <path id="Path_1404" data-name="Path 1404" d="M398.627,930.129a9.1,9.1,0,1,0-9.1-9.1A9.1,9.1,0,0,0,398.627,930.129Z" transform="translate(415.485 471.615)" fill="#82d2ef"/>
    <path id="Path_1405" data-name="Path 1405" d="M405.69,925.237a6.311,6.311,0,1,0-6.313-6.309A6.312,6.312,0,0,0,405.69,925.237Z" transform="translate(445.732 473.719)" fill="#82d2ef"/>
    <path id="Path_1406" data-name="Path 1406" d="M413.059,921.06a3.93,3.93,0,1,0-3.932-3.928A3.931,3.931,0,0,0,413.059,921.06Z" transform="translate(475.668 475.515)" fill="#82d2ef"/>
    <path id="Path_1407" data-name="Path 1407" d="M420.818,917.8a2.07,2.07,0,1,0-2.068-2.068A2.066,2.066,0,0,0,420.818,917.8Z" transform="translate(505.215 476.918)" fill="#82d2ef"/>
    <path id="Path_1408" data-name="Path 1408" d="M429.046,915.619a.828.828,0,1,0-.826-.826A.827.827,0,0,0,429.046,915.619Z" transform="translate(534.292 477.854)" fill="#82d2ef"/>
    <path id="Path_1409" data-name="Path 1409" d="M272.847,923.874a.309.309,0,1,0,0-.619.309.309,0,1,0,0,.619Z" transform="translate(56.281 506.388)" fill="#82d2ef"/>
    <path id="Path_1410" data-name="Path 1410" d="M282.72,925.512a1.244,1.244,0,1,0-1.246-1.242A1.244,1.244,0,0,0,282.72,925.512Z" transform="translate(83.718 505.682)" fill="#82d2ef"/>
    <path id="Path_1411" data-name="Path 1411" d="M292.818,927.683a2.481,2.481,0,1,0-2.483-2.479A2.479,2.479,0,0,0,292.818,927.683Z" transform="translate(110.925 504.748)" fill="#82d2ef"/>
    <circle id="Ellipse_70" data-name="Ellipse 70" cx="4.138" cy="4.138" r="4.138" transform="translate(436.91 1425.814)" fill="#82d2ef"/>
    <path id="Path_1412" data-name="Path 1412" d="M313.8,933.86a6,6,0,1,0-6-6A6.006,6.006,0,0,0,313.8,933.86Z" transform="translate(164.554 502.092)" fill="#82d2ef"/>
    <path id="Path_1413" data-name="Path 1413" d="M324.527,937.487a8.07,8.07,0,1,0-8.068-8.068A8.065,8.065,0,0,0,324.527,937.487Z" transform="translate(191.138 500.533)" fill="#82d2ef"/>
    <path id="Path_1414" data-name="Path 1414" d="M335.175,940.936A10.036,10.036,0,1,0,325.141,930.9,10.039,10.039,0,0,0,335.175,940.936Z" transform="translate(217.795 499.05)" fill="#82d2ef"/>
    <path id="Path_1415" data-name="Path 1415" d="M345.666,944.017a11.792,11.792,0,1,0-11.792-11.788A11.786,11.786,0,0,0,345.666,944.017Z" transform="translate(244.609 497.723)" fill="#82d2ef"/>
    <path id="Path_1416" data-name="Path 1416" d="M355.844,946.381a13.139,13.139,0,1,0-13.135-13.135A13.14,13.14,0,0,0,355.844,946.381Z" transform="translate(271.736 496.707)" fill="#82d2ef"/>
    <path id="Path_1417" data-name="Path 1417" d="M365.246,946.927A13.451,13.451,0,1,0,351.8,933.479,13.453,13.453,0,0,0,365.246,946.927Z" transform="translate(299.64 496.474)" fill="#82d2ef"/>
    <path id="Path_1418" data-name="Path 1418" d="M374.415,946.927a13.451,13.451,0,1,0-13.453-13.449A13.453,13.453,0,0,0,374.415,946.927Z" transform="translate(327.781 496.474)" fill="#82d2ef"/>
    <circle id="Ellipse_71" data-name="Ellipse 71" cx="12.517" cy="12.517" r="12.517" transform="translate(726.984 1417.435)" fill="#82d2ef"/>
    <path id="Path_1419" data-name="Path 1419" d="M390.242,941.112a10.135,10.135,0,1,0-10.135-10.135A10.137,10.137,0,0,0,390.242,941.112Z" transform="translate(386.564 498.976)" fill="#82d2ef"/>
    <path id="Path_1420" data-name="Path 1420" d="M397.534,936.763a7.656,7.656,0,1,0-7.652-7.657A7.658,7.658,0,0,0,397.534,936.763Z" transform="translate(416.578 500.846)" fill="#82d2ef"/>
    <path id="Path_1421" data-name="Path 1421" d="M404.83,932.4a5.171,5.171,0,1,0-5.173-5.169A5.172,5.172,0,0,0,404.83,932.4Z" transform="translate(446.591 502.719)" fill="#82d2ef"/>
    <path id="Path_1422" data-name="Path 1422" d="M412.512,928.954a3.205,3.205,0,1,0-3.207-3.2A3.205,3.205,0,0,0,412.512,928.954Z" transform="translate(476.215 504.202)" fill="#82d2ef"/>
    <path id="Path_1423" data-name="Path 1423" d="M420.428,926.055a1.553,1.553,0,1,0-1.551-1.551A1.554,1.554,0,0,0,420.428,926.055Z" transform="translate(505.605 505.448)" fill="#82d2ef"/>
    <path id="Path_1424" data-name="Path 1424" d="M428.813,924.241a.519.519,0,0,0,0-1.038.519.519,0,0,0,0,1.038Z" transform="translate(534.525 506.228)" fill="#82d2ef"/>
    <path id="Path_1425" data-name="Path 1425" d="M272.691,932.674a.1.1,0,1,0,0-.2.1.1,0,1,0,0,.2Z" transform="translate(56.438 534.685)" fill="#82d2ef"/>
    <path id="Path_1426" data-name="Path 1426" d="M282.17,933.4a.517.517,0,1,0-.517-.517A.52.52,0,0,0,282.17,933.4Z" transform="translate(84.268 534.372)" fill="#82d2ef"/>
    <path id="Path_1427" data-name="Path 1427" d="M291.961,934.852a1.343,1.343,0,1,0-1.347-1.343A1.342,1.342,0,0,0,291.961,934.852Z" transform="translate(111.782 533.749)" fill="#82d2ef"/>
    <path id="Path_1428" data-name="Path 1428" d="M302.06,937.038a2.589,2.589,0,1,0-2.585-2.589A2.593,2.593,0,0,0,302.06,937.038Z" transform="translate(138.989 532.809)" fill="#82d2ef"/>
    <path id="Path_1429" data-name="Path 1429" d="M312.241,939.394a3.932,3.932,0,1,0-3.932-3.932A3.935,3.935,0,0,0,312.241,939.394Z" transform="translate(166.113 531.796)" fill="#82d2ef"/>
    <path id="Path_1430" data-name="Path 1430" d="M322.58,942.118a5.485,5.485,0,1,0-5.487-5.483A5.485,5.485,0,0,0,322.58,942.118Z" transform="translate(193.084 530.623)" fill="#82d2ef"/>
    <path id="Path_1431" data-name="Path 1431" d="M332.758,944.478a6.83,6.83,0,1,0-6.83-6.83A6.825,6.825,0,0,0,332.758,944.478Z" transform="translate(220.211 529.61)" fill="#82d2ef"/>
    <path id="Path_1432" data-name="Path 1432" d="M342.857,946.65a8.068,8.068,0,1,0-8.068-8.068A8.066,8.066,0,0,0,342.857,946.65Z" transform="translate(247.419 528.676)" fill="#82d2ef"/>
    <path id="Path_1433" data-name="Path 1433" d="M352.568,947.92a8.792,8.792,0,1,0-8.792-8.792A8.792,8.792,0,0,0,352.568,947.92Z" transform="translate(275.012 528.13)" fill="#82d2ef"/>
    <path id="Path_1434" data-name="Path 1434" d="M361.967,948.463a9.1,9.1,0,1,0-9.1-9.1A9.1,9.1,0,0,0,361.967,948.463Z" transform="translate(302.92 527.896)" fill="#82d2ef"/>
    <path id="Path_1435" data-name="Path 1435" d="M370.979,948.106a8.9,8.9,0,1,0-8.9-8.9A8.9,8.9,0,0,0,370.979,948.106Z" transform="translate(331.217 528.05)" fill="#82d2ef"/>
    <circle id="Ellipse_72" data-name="Ellipse 72" cx="8.276" cy="8.276" r="8.276" transform="translate(731.226 1458.982)" fill="#82d2ef"/>
    <path id="Path_1436" data-name="Path 1436" d="M387.826,944.654a6.93,6.93,0,1,0-6.932-6.932A6.932,6.932,0,0,0,387.826,944.654Z" transform="translate(388.981 529.536)" fill="#82d2ef"/>
    <path id="Path_1437" data-name="Path 1437" d="M395.741,941.75a5.275,5.275,0,1,0-5.275-5.275A5.278,5.278,0,0,0,395.741,941.75Z" transform="translate(418.371 530.782)" fill="#82d2ef"/>
    <path id="Path_1438" data-name="Path 1438" d="M403.658,938.851a3.622,3.622,0,1,0-3.619-3.623A3.625,3.625,0,0,0,403.658,938.851Z" transform="translate(447.764 532.029)" fill="#82d2ef"/>
    <path id="Path_1439" data-name="Path 1439" d="M411.653,936.127a2.07,2.07,0,1,0-2.068-2.068A2.072,2.072,0,0,0,411.653,936.127Z" transform="translate(477.075 533.199)" fill="#82d2ef"/>
    <path id="Path_1440" data-name="Path 1440" d="M419.958,934.131a.932.932,0,1,0-.928-.932A.932.932,0,0,0,419.958,934.131Z" transform="translate(506.075 534.059)" fill="#82d2ef"/>
    <path id="Path_1441" data-name="Path 1441" d="M428.577,932.86a.208.208,0,1,0-.2-.208A.206.206,0,0,0,428.577,932.86Z" transform="translate(534.762 534.605)" fill="#82d2ef"/>
    <path id="Path_1442" data-name="Path 1442" d="M281.863,941.844a.1.1,0,0,0,0-.208.1.1,0,1,0,0,.208Z" transform="translate(84.575 562.826)" fill="#82d2ef"/>
    <path id="Path_1443" data-name="Path 1443" d="M291.335,942.568a.517.517,0,1,0-.517-.517A.517.517,0,0,0,291.335,942.568Z" transform="translate(112.409 562.513)" fill="#82d2ef"/>
    <path id="Path_1444" data-name="Path 1444" d="M301.049,943.839A1.241,1.241,0,1,0,299.8,942.6,1.242,1.242,0,0,0,301.049,943.839Z" transform="translate(139.999 561.966)" fill="#82d2ef"/>
    <path id="Path_1445" data-name="Path 1445" d="M310.911,945.471a2.172,2.172,0,1,0-2.169-2.174A2.173,2.173,0,0,0,310.911,945.471Z" transform="translate(167.443 561.266)" fill="#82d2ef"/>
    <path id="Path_1446" data-name="Path 1446" d="M320.784,947.109A3.106,3.106,0,1,0,317.678,944,3.1,3.1,0,0,0,320.784,947.109Z" transform="translate(194.88 560.56)" fill="#82d2ef"/>
    <circle id="Ellipse_73" data-name="Ellipse 73" cx="4.138" cy="4.138" r="4.138" transform="translate(548.831 1500.426)" fill="#82d2ef"/>
    <circle id="Ellipse_74" data-name="Ellipse 74" cx="4.967" cy="4.967" r="4.967" transform="translate(585.309 1499.597)" fill="#82d2ef"/>
    <path id="Path_1447" data-name="Path 1447" d="M350.072,951.284a5.485,5.485,0,1,0-5.483-5.487A5.489,5.489,0,0,0,350.072,951.284Z" transform="translate(277.509 558.767)" fill="#82d2ef"/>
    <path id="Path_1448" data-name="Path 1448" d="M359.237,951.284a5.485,5.485,0,1,0-5.483-5.487A5.489,5.489,0,0,0,359.237,951.284Z" transform="translate(305.649 558.767)" fill="#82d2ef"/>
    <path id="Path_1449" data-name="Path 1449" d="M368.406,951.284a5.485,5.485,0,1,0-5.487-5.487A5.489,5.489,0,0,0,368.406,951.284Z" transform="translate(333.79 558.767)" fill="#82d2ef"/>
    <circle id="Ellipse_75" data-name="Ellipse 75" cx="5.068" cy="5.068" r="5.068" transform="translate(734.434 1499.496)" fill="#82d2ef"/>
    <circle id="Ellipse_76" data-name="Ellipse 76" cx="4.138" cy="4.138" r="4.138" transform="translate(772.67 1500.426)" fill="#82d2ef"/>
    <path id="Path_1450" data-name="Path 1450" d="M394.1,947.109A3.106,3.106,0,1,0,391,944,3.108,3.108,0,0,0,394.1,947.109Z" transform="translate(420.014 560.56)" fill="#82d2ef"/>
    <path id="Path_1451" data-name="Path 1451" d="M402.411,945.107a1.964,1.964,0,1,0-1.966-1.966A1.962,1.962,0,0,0,402.411,945.107Z" transform="translate(449.011 561.422)" fill="#82d2ef"/>
    <path id="Path_1452" data-name="Path 1452" d="M410.873,943.475a1.034,1.034,0,1,0-1.034-1.034A1.03,1.03,0,0,0,410.873,943.475Z" transform="translate(477.854 562.122)" fill="#82d2ef"/>
    <path id="Path_1453" data-name="Path 1453" d="M419.491,942.207a.316.316,0,0,0,.313-.313.313.313,0,0,0-.313-.309.309.309,0,0,0-.309.309A.312.312,0,0,0,419.491,942.207Z" transform="translate(506.541 562.669)" fill="#82d2ef"/>
    <path id="Path_1454" data-name="Path 1454" d="M291.025,951a.1.1,0,1,0,0-.2.1.1,0,1,0,0,.2Z" transform="translate(112.719 590.969)" fill="#82d2ef"/>
    <path id="Path_1455" data-name="Path 1455" d="M300.343,951.373a.311.311,0,1,0-.309-.309A.312.312,0,0,0,300.343,951.373Z" transform="translate(140.706 590.81)" fill="#82d2ef"/>
    <path id="Path_1456" data-name="Path 1456" d="M309.9,952.28a.828.828,0,1,0-.826-.826A.828.828,0,0,0,309.9,952.28Z" transform="translate(168.456 590.42)" fill="#82d2ef"/>
    <path id="Path_1457" data-name="Path 1457" d="M319.534,953.369a1.449,1.449,0,1,0-1.449-1.449A1.449,1.449,0,0,0,319.534,953.369Z" transform="translate(196.13 589.953)" fill="#82d2ef"/>
    <path id="Path_1458" data-name="Path 1458" d="M329.089,954.272a1.964,1.964,0,1,0-1.966-1.962A1.961,1.961,0,0,0,329.089,954.272Z" transform="translate(223.881 589.563)" fill="#82d2ef"/>
    <path id="Path_1459" data-name="Path 1459" d="M338.644,955.179a2.481,2.481,0,1,0-2.483-2.479A2.475,2.475,0,0,0,338.644,955.179Z" transform="translate(251.631 589.173)" fill="#82d2ef"/>
    <path id="Path_1460" data-name="Path 1460" d="M348.039,955.726a2.792,2.792,0,1,0-2.788-2.792A2.795,2.795,0,0,0,348.039,955.726Z" transform="translate(279.541 588.94)" fill="#82d2ef"/>
    <path id="Path_1461" data-name="Path 1461" d="M357.284,955.907a2.9,2.9,0,1,0-2.894-2.894A2.893,2.893,0,0,0,357.284,955.907Z" transform="translate(307.602 588.86)" fill="#82d2ef"/>
    <path id="Path_1462" data-name="Path 1462" d="M366.453,955.907a2.9,2.9,0,1,0-2.9-2.894A2.9,2.9,0,0,0,366.453,955.907Z" transform="translate(335.742 588.86)" fill="#82d2ef"/>
    <path id="Path_1463" data-name="Path 1463" d="M375.3,955.179a2.481,2.481,0,1,0-2.483-2.479A2.479,2.479,0,0,0,375.3,955.179Z" transform="translate(364.196 589.173)" fill="#82d2ef"/>
    <path id="Path_1464" data-name="Path 1464" d="M384.077,954.272a1.964,1.964,0,1,0-1.962-1.962A1.965,1.965,0,0,0,384.077,954.272Z" transform="translate(392.73 589.563)" fill="#82d2ef"/>
    <path id="Path_1465" data-name="Path 1465" d="M392.775,953.179a1.341,1.341,0,1,0-1.343-1.339A1.339,1.339,0,0,0,392.775,953.179Z" transform="translate(421.337 590.033)" fill="#82d2ef"/>
    <path id="Path_1466" data-name="Path 1466" d="M401.475,952.094a.723.723,0,1,0-.725-.72A.719.719,0,0,0,401.475,952.094Z" transform="translate(449.947 590.499)" fill="#82d2ef"/>
    <path id="Path_1467" data-name="Path 1467" d="M410.246,951.19a.2.2,0,0,0,.2-.2.2.2,0,1,0-.407,0A.2.2,0,0,0,410.246,951.19Z" transform="translate(478.481 590.886)" fill="#82d2ef"/>
    <path id="Path_1468" data-name="Path 1468" d="M309.349,960.174a.1.1,0,1,0,0-.208.1.1,0,0,0-.1.106A.1.1,0,0,0,309.349,960.174Z" transform="translate(169.006 619.107)" fill="#82d2ef"/>
    <path id="Path_1469" data-name="Path 1469" d="M318.677,960.534a.308.308,0,0,0,.309-.305.311.311,0,1,0-.623,0A.309.309,0,0,0,318.677,960.534Z" transform="translate(196.987 618.95)" fill="#82d2ef"/>
    <path id="Path_1470" data-name="Path 1470" d="M328.073,961.077a.619.619,0,1,0-.619-.619A.618.618,0,0,0,328.073,961.077Z" transform="translate(224.897 618.72)" fill="#82d2ef"/>
    <path id="Path_1471" data-name="Path 1471" d="M337.471,961.627a.932.932,0,1,0-.928-.932A.932.932,0,0,0,337.471,961.627Z" transform="translate(252.804 618.483)" fill="#82d2ef"/>
    <path id="Path_1472" data-name="Path 1472" d="M346.636,961.627a.932.932,0,1,0-.928-.932A.938.938,0,0,0,346.636,961.627Z" transform="translate(280.945 618.483)" fill="#82d2ef"/>
    <path id="Path_1473" data-name="Path 1473" d="M355.958,961.984a1.136,1.136,0,1,0-1.136-1.135A1.137,1.137,0,0,0,355.958,961.984Z" transform="translate(308.928 618.33)" fill="#82d2ef"/>
    <path id="Path_1474" data-name="Path 1474" d="M365.127,961.984a1.136,1.136,0,1,0-1.14-1.135A1.136,1.136,0,0,0,365.127,961.984Z" transform="translate(337.069 618.33)" fill="#82d2ef"/>
    <path id="Path_1475" data-name="Path 1475" d="M374.132,961.627a.932.932,0,1,0-.928-.932A.935.935,0,0,0,374.132,961.627Z" transform="translate(365.369 618.483)" fill="#82d2ef"/>
    <path id="Path_1476" data-name="Path 1476" d="M383.064,961.077a.619.619,0,1,0-.619-.619A.622.622,0,0,0,383.064,961.077Z" transform="translate(393.743 618.72)" fill="#82d2ef"/>
    <path id="Path_1477" data-name="Path 1477" d="M392,960.534a.309.309,0,0,0,.313-.305.311.311,0,1,0-.623,0A.308.308,0,0,0,392,960.534Z" transform="translate(422.117 618.95)" fill="#82d2ef"/>
    <path id="Path_1478" data-name="Path 1478" d="M401.008,960.174a.1.1,0,1,0-.106-.1A.1.1,0,0,0,401.008,960.174Z" transform="translate(450.414 619.107)" fill="#82d2ef"/>
    <path id="Path_1479" data-name="Path 1479" d="M327.683,969.339a.1.1,0,0,0,.1-.106.1.1,0,0,0-.1-.1.1.1,0,0,0-.1.1A.1.1,0,0,0,327.683,969.339Z" transform="translate(225.287 647.25)" fill="#82d2ef"/>
    <circle id="Ellipse_77" data-name="Ellipse 77" cx="0.103" cy="0.103" r="0.103" transform="translate(590.172 1616.381)" fill="#82d2ef"/>
    <path id="Path_1480" data-name="Path 1480" d="M346.01,969.339a.105.105,0,0,0,.106-.106.1.1,0,0,0-.106-.1.1.1,0,0,0-.1.1A.1.1,0,0,0,346.01,969.339Z" transform="translate(281.571 647.25)" fill="#82d2ef"/>
    <path id="Path_1481" data-name="Path 1481" d="M355.178,969.339a.105.105,0,0,0,.106-.106.1.1,0,0,0-.106-.1.1.1,0,0,0-.1.1A.1.1,0,0,0,355.178,969.339Z" transform="translate(309.708 647.25)" fill="#82d2ef"/>
    <path id="Path_1482" data-name="Path 1482" d="M364.347,969.339a.108.108,0,0,0,.106-.106.1.1,0,0,0-.106-.1.1.1,0,0,0-.106.1A.105.105,0,0,0,364.347,969.339Z" transform="translate(337.849 647.25)" fill="#82d2ef"/>
    <circle id="Ellipse_78" data-name="Ellipse 78" cx="0.103" cy="0.103" r="0.103" transform="translate(739.398 1616.381)" fill="#82d2ef"/>
  </g>
</svg>
