<svg xmlns="http://www.w3.org/2000/svg" width="206.404" height="36.612" viewBox="0 0 206.404 36.612"><defs><style>.a{fill:#707070;}</style></defs><g transform="translate(0 0)"><g transform="translate(0)"><path class="a" d="M121.8,2811.836c-.7-.1-1.411-.184-2.113-.3a11.811,11.811,0,0,1-8.86-6.368,19.141,19.141,0,0,1-2.086-7.239,44.327,44.327,0,0,1-.252-5.016,25.458,25.458,0,0,1,1.819-9.77,12.209,12.209,0,0,1,9.871-7.687c.6-.094,1.2-.153,1.8-.227H123.9c.69.1,1.382.176,2.069.289a11.9,11.9,0,0,1,9.53,7.614,20.085,20.085,0,0,1,1.547,6.776,55.9,55.9,0,0,1,.073,5.884,20.855,20.855,0,0,1-2.832,10.093,12.016,12.016,0,0,1-9.091,5.756c-.462.063-.924.134-1.386.2Zm9.554-18.955c-.164-2.342-.322-5.17-.575-7.988a14.713,14.713,0,0,0-1.166-4.584,6.084,6.084,0,0,0-4.585-3.8,11.205,11.205,0,0,0-4.4,0,5.488,5.488,0,0,0-3.984,2.789,14.12,14.12,0,0,0-1.161,2.814,34.881,34.881,0,0,0-.993,8.593,74.422,74.422,0,0,0,.34,10.544,18.956,18.956,0,0,0,1.178,5.1,6.494,6.494,0,0,0,2.525,3.275,8.976,8.976,0,0,0,6.98.827,5.961,5.961,0,0,0,4.178-3.954,19.869,19.869,0,0,0,1.267-5.959C131.138,2798.155,131.207,2795.764,131.351,2792.882Z" transform="translate(-80.607 -2775.224)"/><path class="a" d="M287.961,2798.567c-.061.448-.146.895-.179,1.345-.142,1.9-.263,3.8-.4,5.7-.134,1.822-.293,3.642-.414,5.464-.027.4-.177.5-.557.5-2.822-.013-5.644-.007-8.466-.007q-7.893,0-15.786,0c-.318,0-.561,0-.536-.447.019-.338.113-.438.45-.447,1.611-.043,3.221-.112,4.873-.175v-.491q0-16.359,0-32.718c0-.608,0-.6-.59-.622-1.431-.055-2.862-.13-4.293-.17-.349-.01-.432-.127-.436-.458,0-.365.151-.423.468-.423q7.527.011,15.055.005c3.02,0,6.04.007,9.06-.008.409,0,.541.094.545.53.019,2.515.074,5.031.117,7.546.021,1.174.056,2.346.061,3.52,0,.152-.122.426-.213.437-.284.033-.641.175-.78-.3-.4-1.357-.827-2.708-1.243-4.061-.637-2.066-1.282-4.129-1.9-6.2a.479.479,0,0,0-.55-.4q-4.623.01-9.243,0c-.37,0-.514.112-.513.5q.015,7.161,0,14.323c0,.381.132.5.507.5,1.632-.016,3.265-.023,4.9,0,.413.007.528-.166.558-.519.092-1.092.195-2.183.293-3.274.092-1.015.19-2.03.276-3.046.04-.472.4-.25.627-.3a1.056,1.056,0,0,1,.291.031v15.53c-.156.01-.29.012-.422.03-.369.049-.486-.1-.515-.478-.161-2.125-.356-4.246-.539-6.37-.057-.65-.056-.65-.7-.65-1.571,0-3.142.012-4.713-.008-.409,0-.564.1-.562.536q.018,8.282,0,16.566c0,.325.058.51.446.506q4.712-.046,9.423-.062c.28,0,.35-.147.428-.369q1.443-4.07,2.9-8.132c.379-1.062.778-2.116,1.125-3.188.143-.442.337-.689.83-.6a1.323,1.323,0,0,0,.318-.015Z" transform="translate(-81.556 -2775.227)"/><path class="a" d="M211.31,2811.839c-.616-.069-1.233-.133-1.848-.208a11.65,11.65,0,0,1-5.407-1.788,7.067,7.067,0,0,1-2.96-5,16.093,16.093,0,0,1-.183-2.363q-.019-12.585-.008-25.17c0-.624,0-.615-.625-.64-1.354-.055-2.707-.118-4.1-.181v-.839c.157-.008.318-.024.48-.024q7.413,0,14.827-.008c.382,0,.564.073.53.5-.023.276-.114.368-.383.377-1.538.052-3.075.131-4.613.17-.394.01-.516.115-.516.524q.018,13.294.017,26.588a10.855,10.855,0,0,0,.189,1.905,4.227,4.227,0,0,0,3.062,3.534,14.348,14.348,0,0,0,8.021.206,4.748,4.748,0,0,0,3.6-4.361,13.6,13.6,0,0,0,.1-1.823q.01-12.792,0-25.582c0-.652,0-.672-.622-.75-1.012-.126-2.028-.213-3.039-.343-.261-.034-.64.077-.658-.422-.015-.395.1-.528.509-.526,3.173.016,6.346.008,9.519.011.212,0,.48-.083.491.3.01.331,0,.585-.437.624-1.258.113-2.512.28-3.771.374-.426.032-.488.2-.487.568q.01,10.755,0,21.509c0,1.831.037,3.663-.021,5.492a6.954,6.954,0,0,1-1.681,4.581,7.164,7.164,0,0,1-3.889,2.178c-1.035.23-2.1.323-3.151.481-.193.029-.384.075-.575.112Z" transform="translate(-81.151 -2775.227)"/><path class="a" d="M80.433,2775.592c.213.01.425.028.638.028h24.18c.019.154.045.269.047.386.044,2.011.079,4.024.127,6.035.042,1.736.105,3.471.142,5.208,0,.219.167.564-.265.6-.371.033-.661.04-.82-.464-1.061-3.369-2.178-6.72-3.252-10.085a.753.753,0,0,0-.865-.622c-2.821.024-5.643.011-8.465.012-.668,0-.668,0-.668.648V2791.3c0,.7,0,.7.706.7,1.571,0,3.142-.012,4.714.009.38.005.507-.144.544-.489.215-2.059.449-4.115.652-6.176.04-.412.225-.482.589-.485.415,0,.376.244.376.51q0,7.3,0,14.6c0,.269.031.514-.38.509-.36,0-.55-.064-.588-.485-.2-2.2-.435-4.391-.654-6.586-.031-.3-.144-.445-.487-.442q-2.494.025-4.988,0c-.4,0-.495.158-.488.514.015.793,0,1.586,0,2.379V2809.9c0,.592,0,.583.592.6,1.6.056,3.2.13,4.8.173.348.009.349.193.353.44s0,.47-.344.448c-.121-.007-.244,0-.366,0H80.433v-.915a4.991,4.991,0,0,0,.5.03q2.053-.083,4.106-.179c.721-.035.721-.043.721-.76v-31.881c0-.26-.006-.519.006-.777.013-.291-.111-.411-.4-.413-.518,0-1.036-.031-1.552-.048l-3.378-.114Z" transform="translate(-80.433 -2775.226)"/><path class="a" d="M156.207,2793.491c.894.162,1.646.272,2.385.438a5.266,5.266,0,0,1,4.356,4.484c.38,2.064.683,4.142,1.014,6.215q.431,2.7.847,5.407c.052.34.2.464.566.476,1.307.042,2.613.13,3.95.2.016.12.031.235.048.352.051.364-.08.508-.473.506q-4.369-.021-8.739,0c-.368,0-.477-.162-.522-.468-.186-1.28-.363-2.561-.565-3.838q-.769-4.842-1.564-9.681a5.96,5.96,0,0,0-.3-.958,3.484,3.484,0,0,0-3.384-2.472c-1.535-.083-3.077-.058-4.615-.114-.442-.015-.533.148-.532.553.013,3.766.008,7.534.008,11.3,0,1.342.014,2.684-.008,4.026-.007.417.084.581.547.589,1.416.025,2.831.117,4.247.163.318.011.337.181.33.415s.045.486-.319.471c-.091,0-.183,0-.274,0q-7.321,0-14.642.006c-.355,0-.577-.038-.553-.484.018-.323.125-.4.435-.412,1.492-.045,2.983-.121,4.475-.17.279-.009.389-.113.378-.379-.006-.168,0-.336,0-.5v-32.258c0-.682,0-.671-.68-.7-1.416-.055-2.831-.131-4.247-.173-.377-.011-.355-.224-.365-.481-.011-.3.1-.4.4-.4,5.4.008,10.8-.031,16.2.029a14.658,14.658,0,0,1,5.795,1.11,5.905,5.905,0,0,1,3.586,4.326,13.5,13.5,0,0,1,.021,6.113,7.63,7.63,0,0,1-5.458,5.636c-.6.2-1.233.334-1.849.5C156.577,2793.366,156.452,2793.412,156.207,2793.491Zm-7.519-8.606v7.592c0,.6,0,.6.613.6,1.463-.016,2.93.028,4.387-.075,2.579-.184,4.12-1.281,4.791-3.638a14.432,14.432,0,0,0,.43-2.7,18.909,18.909,0,0,0-.211-5.506,5.035,5.035,0,0,0-5.151-4.4c-1.429-.067-2.863-.032-4.294-.071-.431-.012-.579.113-.575.563C148.7,2779.794,148.687,2782.34,148.688,2784.885Z" transform="translate(-80.79 -2775.227)"/><path class="a" d="M253.891,2800.207v-.525q0-11.027-.006-22.055c0-.633,0-.641-.616-.7-1.272-.125-2.546-.229-3.816-.371-.232-.026-.59.094-.66-.315-.087-.518,0-.617.532-.617q5.262,0,10.524,0c.224,0,.5-.094.517.317.014.364-.066.564-.474.6-1.364.115-2.725.278-4.091.374-.416.03-.489.174-.489.55q.015,11.371.007,22.742c0,3.646,0,7.292-.008,10.937,0,.19-.094.517-.2.543a.682.682,0,0,1-.864-.281c-1.224-2.02-2.477-4.023-3.721-6.031q-5.624-9.073-11.25-18.146-1.939-3.129-3.873-6.261a.889.889,0,0,0-.375-.353c-.007.143-.021.285-.022.428q0,14.277-.008,28.553c0,.416.049.613.546.65,1.38.1,2.753.3,4.131.416.4.035.364.25.377.518.016.31-.122.39-.406.39q-5.492-.009-10.982,0c-.334,0-.412-.148-.406-.446,0-.279.041-.431.39-.46,1.532-.127,3.06-.3,4.59-.439.245-.023.369-.1.354-.359-.009-.136,0-.274,0-.411q0-15.444.013-30.887a2.624,2.624,0,0,0-.659-1.506c-.052-.079-.211-.1-.325-.119-.965-.129-1.932-.249-2.9-.374-.29-.037-.57-.05-.56-.484.009-.354.108-.471.474-.469q4.347.019,8.694,0a.593.593,0,0,1,.577.334q4.837,7.947,9.687,15.887,2.452,4.021,4.905,8.039c.078.126.168.245.252.367Z" transform="translate(-81.35 -2775.227)"/><path class="a" d="M190.056,2810.707c0,.2-.009.363,0,.526.016.232-.081.343-.316.33-.046,0-.091,0-.138,0q-7.8,0-15.6,0c-.358,0-.478-.116-.467-.478.01-.316.109-.409.424-.419,1.538-.048,3.075-.141,4.613-.174.486-.01.565-.2.565-.632q-.016-14.3-.009-28.6c0-1.372-.011-2.745.008-4.117,0-.373-.1-.5-.488-.5q-2.585.027-5.17,0c-.34,0-.468.123-.569.434q-1.661,5.1-3.351,10.2c-.083.253-.08.579-.511.579-.629,0-.643.024-.625-.616q.133-4.8.281-9.592c.017-.562.065-1.125.076-1.688,0-.255.1-.367.353-.347.09.008.183,0,.274,0H194.16c.647,0,.644,0,.661.632q.149,5.484.3,10.968c0,.181.027.362.041.538-.715.257-.917.155-1.14-.535q-1.644-5.083-3.305-10.16c-.053-.16-.259-.382-.4-.384-1.889-.026-3.779-.017-5.731-.017-.011.2-.028.374-.028.549q0,16.358-.011,32.715c0,.46.163.552.58.565C186.743,2810.544,188.355,2810.631,190.056,2810.707Z" transform="translate(-80.979 -2775.227)"/></g></g></svg>