<svg xmlns="http://www.w3.org/2000/svg" width="135.966" height="30" viewBox="0 0 135.966 30"><defs><style>.a{fill:#135e79;}</style></defs><g transform="translate(-328.017 -598.038)"><path class="a" d="M342.915,616.711H351.9V623.2c-1.846,1.723-4.76,3.283-9.521,3.283a12.764,12.764,0,0,1,.041-25.527c3.53,0,6.4,1.026,8.413,3.119l1.108-1.149c-2.257-2.38-5.745-3.488-9.521-3.488-7.961,0-14.4,5.786-14.4,14.281S334.419,628,342.381,628c5.335,0,8.906-1.847,11.163-4.145v-8.618H342.915Z"/><path class="a" d="M372.505,620.282a5.871,5.871,0,0,1-6.156,6.279c-3.2,0-4.8-1.929-4.8-5.335v-10.3h-1.6v10.547c0,4.1,2.5,6.566,6.238,6.566a6.7,6.7,0,0,0,6.361-4.063l-.041,3.694h1.6V610.925h-1.6Z"/><path class="a" d="M385.925,626.561c-1.395,0-2.257-.9-2.257-3.365V612.279h4.842v-1.354h-4.842v-5.869h-1.6v5.869H379.44v1.354h2.627v10.958c0,3.406,1.724,4.76,3.858,4.76a4.419,4.419,0,0,0,3.693-1.682l-1.026-.985A3.14,3.14,0,0,1,385.925,626.561Z"/><path class="a" d="M403.408,610.555a7.663,7.663,0,0,0-7.1,4.351V598.038h-1.6v29.631h1.6l-.082-4.186A7.919,7.919,0,0,0,403.408,628c4.8,0,8.29-3.816,8.29-8.741S408.209,610.555,403.408,610.555Zm-.206,16.006c-4.227,0-7.017-3.16-7.017-7.3s2.79-7.264,7.017-7.264c4.145,0,6.813,3.119,6.813,7.264S407.347,626.561,403.2,626.561Z"/><rect class="a" width="1.601" height="29.631" transform="translate(417.936 598.038)"/><path class="a" d="M427.868,602.347a1.367,1.367,0,0,0-1.355,1.355,1.354,1.354,0,0,0,2.709,0A1.367,1.367,0,0,0,427.868,602.347Z"/><rect class="a" width="1.6" height="16.744" transform="translate(427.088 610.925)"/><path class="a" d="M441.411,618.189c-3.284-.985-4.31-1.6-4.31-3.53,0-1.6,1.355-2.708,3.489-2.708a4.607,4.607,0,0,1,4.1,2.5l1.231-.739a5.718,5.718,0,0,0-5.335-3.16c-2.791,0-5.007,1.724-5.007,4.186,0,3,2.339,3.981,5.171,4.8,3.037.944,4.637,1.519,4.637,3.817,0,1.929-1.641,3.2-4.186,3.2a5.409,5.409,0,0,1-5.335-3.365l-1.395.615A6.948,6.948,0,0,0,441.2,628c3.735,0,5.787-2.011,5.787-4.678C446.992,620.2,444.448,619.092,441.411,618.189Z"/><path class="a" d="M458.4,618.189c-3.283-.985-4.309-1.6-4.309-3.53,0-1.6,1.355-2.708,3.489-2.708a4.607,4.607,0,0,1,4.1,2.5l1.231-.739a5.718,5.718,0,0,0-5.335-3.16c-2.791,0-5.007,1.724-5.007,4.186,0,3,2.339,3.981,5.171,4.8,3.037.944,4.637,1.519,4.637,3.817,0,1.929-1.641,3.2-4.186,3.2a5.408,5.408,0,0,1-5.335-3.365l-1.395.615A6.948,6.948,0,0,0,458.2,628c3.735,0,5.787-2.011,5.787-4.678C463.983,620.2,461.438,619.092,458.4,618.189Z"/></g></svg>