<svg xmlns="http://www.w3.org/2000/svg" width="20.076" height="20.076" viewBox="0 0 20.076 20.076"><defs><style>.a{fill:#fff;}</style></defs><path class="a" d="M-903.718,247.791a10.037,10.037,0,0,0-10.038-10.038,10.037,10.037,0,0,0-10.039,10.038,10.038,10.038,0,0,0,10.039,10.038c.041,0,.081-.006.122-.007v-6.849h-1.813v-2.467h1.813V246.4c0-1.656,1.07-3.178,3.538-3.178a14.894,14.894,0,0,1,1.737.1l-.058,2.3s-.753-.007-1.576-.007c-.889,0-1.032.41-1.032,1.091v1.8h2.678l-.116,2.467h-2.562v6.47A10.034,10.034,0,0,0-903.718,247.791Z" transform="translate(923.794 -237.753)"/></svg>