<svg xmlns="http://www.w3.org/2000/svg" width="20.076" height="20.076" viewBox="0 0 20.076 20.076"><defs><style>.a{fill:#fff;}</style></defs><path class="a" d="M-795.346,237.753a10.039,10.039,0,0,0-10.038,10.038,10.038,10.038,0,0,0,10.038,10.038,10.038,10.038,0,0,0,10.038-10.038A10.039,10.039,0,0,0-795.346,237.753Zm-2.73,14.412h-2.238V245.21h2.238Zm-1.134-7.809a1.085,1.085,0,0,1-1.164-1.08,1.1,1.1,0,0,1,1.194-1.081A1.088,1.088,0,0,1-798,243.276,1.1,1.1,0,0,1-799.209,244.356Zm9.309,7.809h-2.239v-3.854c0-.9-.324-1.506-1.134-1.506a1.224,1.224,0,0,0-1.15.809,1.5,1.5,0,0,0-.074.541v4.01h-2.238v-4.736c0-.869-.03-1.592-.06-2.22h1.945l.1.968h.045a2.608,2.608,0,0,1,2.225-1.123c1.471,0,2.577.952,2.577,3Z" transform="translate(805.384 -237.753)"/></svg>