<svg xmlns="http://www.w3.org/2000/svg" width="20.074" height="20.074" viewBox="0 0 20.074 20.074"><defs><style>.a{fill:#fff;}</style></defs><path class="a" d="M-874.285,237.754a10.037,10.037,0,0,0-10.037,10.037,10.037,10.037,0,0,0,10.037,10.037,10.037,10.037,0,0,0,10.037-10.037A10.037,10.037,0,0,0-874.285,237.754Zm4.992,8.321c0,.1.007.2.007.3a6.466,6.466,0,0,1-6.51,6.511,6.483,6.483,0,0,1-3.508-1.028,4.617,4.617,0,0,0,.547.032,4.6,4.6,0,0,0,2.842-.98,2.291,2.291,0,0,1-2.137-1.589,2.328,2.328,0,0,0,.43.041,2.32,2.32,0,0,0,.6-.08,2.287,2.287,0,0,1-1.835-2.243V247a2.287,2.287,0,0,0,1.036.286,2.287,2.287,0,0,1-1.018-1.905,2.274,2.274,0,0,1,.31-1.15,6.49,6.49,0,0,0,4.716,2.39,2.273,2.273,0,0,1-.06-.522,2.288,2.288,0,0,1,2.288-2.287,2.285,2.285,0,0,1,1.67.722,4.536,4.536,0,0,0,1.453-.555,2.294,2.294,0,0,1-1.006,1.267,4.569,4.569,0,0,0,1.314-.361A4.656,4.656,0,0,1-869.293,246.075Z" transform="translate(884.322 -237.754)"/></svg>