<svg xmlns="http://www.w3.org/2000/svg" width="174.658" height="25.989" viewBox="0 0 174.658 25.989"><defs><style>.a{fill:#707070;fill-rule:evenodd;}</style></defs><g transform="translate(0 0)"><path class="a" d="M-227.452,2787.6c0,3.512-.352,14.4-.352,14.4,0,2.107.7,3.043,2.693,3.043v.937h-7.844v-.937c1.991,0,3.044-.936,3.044-3.043l.7-17.794a2.643,2.643,0,0,0-2.692-1.99v-.82h5.97l6.322,16.623,6.439-16.623h5.384v.82a2.054,2.054,0,0,0-2.341,2.341l.7,17.208c0,2.576.468,3.278,2.575,3.278v.937h-9.014v-.937c1.756,0,2.576-.585,2.459-3.278,0,0-.351-12.058-.468-14.165l-4.332,11.94a44.764,44.764,0,0,0-1.639,5.151l-1.4.117c-.352-1.288-1.288-3.629-1.288-3.629s-3.629-10.185-4.916-13.579Z" transform="translate(310.45 -2780.574)"/><path class="a" d="M-234.959,2806.091a5.7,5.7,0,0,0-1.405-.117c-.936,0-2.575.468-4.566.468-7.609,0-13.227-4.565-13.227-12.994,0-7.141,5.267-12.643,13.345-12.643a16.073,16.073,0,0,1,5.736,1.053c.351-.351.468-.585.819-.936h.7c-.117,1.288-.585,5.5-.585,5.5h-.7c-.469-2.458-1.757-4.1-5.853-4.1-4.917,0-9.366,3.863-9.366,11,0,8.078,4.566,11.589,9.6,11.589,3.279,0,5.268-1.872,6.556-4.214l.819.351-1.872,5.034Z" transform="translate(310.582 -2780.571)"/><path class="a" d="M-257.213,2785.955h-.82c-.117-2.224-.82-2.927-2.575-2.927H-264v18.38c0,3.043.585,3.628,2.575,3.628v.937h-8.779v-.937c1.99,0,2.575-.585,2.575-3.746v-18.262h-3.395c-2.224,0-2.575.585-3.161,2.927h-.819l.585-5.268.585.117c.235.585.7.585,2.107.585h11.355c2.107,0,2.576,0,3.044-.7h.7l-.585,5.268Z" transform="translate(310.711 -2780.57)"/><path class="a" d="M-282.12,2806.559a11.183,11.183,0,0,1-3.864-.585,6.719,6.719,0,0,1-1.99-.82,6.293,6.293,0,0,0-.82,1.053l-.7-.233.585-5.5.82.117c.468,2.576,2.224,4.448,5.853,4.448a4.746,4.746,0,0,0,4.682-4.916c0-2.107-.819-3.16-3.628-5.268a22.437,22.437,0,0,1-2.459-1.639c-2.575-1.639-4.214-3.512-4.214-6.555,0-3.512,2.926-5.854,6.79-5.854a8.812,8.812,0,0,1,4.1.936l.82-.936.585.117-.585,5.034-.82-.117c0-2.342-1.4-3.4-3.746-3.4-2.224,0-3.863,1.171-3.863,3.4,0,1.99,1.522,3.277,3.278,4.448.936.585,1.639,1.054,2.341,1.522,4.1,2.926,5.034,4.8,5.034,7.608,0,4.1-3.16,7.142-8.194,7.142Z" transform="translate(310.801 -2780.571)"/><path class="a" d="M-295.6,2785.955h-.936c0-2.107-.937-2.927-2.81-2.927h-5.267v9.249h3.395c1.756,0,2.107-.936,2.341-2.459h.819v6.556h-.819c-.235-1.756-.585-2.458-2.459-2.458h-3.278v7.843c0,2.927.7,3.278,2.575,3.278v.937h-8.9v-.937c2.224,0,2.575-.585,2.575-3.278V2784.55c0-1.64-.7-2.341-2.575-2.341v-.82h12.175c2.107,0,2.575-.117,2.926-.82h.82l-.585,5.385Z" transform="translate(310.934 -2780.569)"/><path class="a" d="M-168.557,2787.365v14.047c0,3.043.7,3.628,2.576,3.628v.937H-179.8v-.937c1.053,0,1.991-.351,1.991-1.053a8.636,8.636,0,0,0-.352-2.107l-1.053-3.4h-7.726c-.117.468-1.522,4.331-1.522,5.385,0,.937,1.054,1.171,1.756,1.171v.937h-6.438v-.937c1.171,0,2.107-.117,2.926-2.575l5.971-19.082a1.758,1.758,0,0,0-1.639-1.17v-.82h5.267l6.322,20.018c.585,2.107,1.171,3.16,2.108,3.628,1.4-.468,1.755-.936,1.755-3.628v-16.857c-1.053-1.405-1.17-2.341-3.16-2.341v-.82h5.971l9.833,16.74v-12.76c0-2.576-.585-3.16-2.575-3.16v-.82h13.111v.82c-.82,0-1.522.351-1.522,1.17a6.241,6.241,0,0,0,.469,1.873l3.746,8.078,3.629-7.843a4.264,4.264,0,0,0,.7-2.224c0-.7-.468-1.053-1.522-1.053v-.82h6.2v.82c-1.521,0-2.459,1.4-3.16,3.043l-4.8,9.834v6.438c0,2.81.7,3.512,2.576,3.512v.937h-8.9v-.937c1.873,0,2.576-.7,2.576-3.512v-5.5l-5.151-10.887c-.937-2.107-1.288-2.575-1.873-2.926-1.171.468-1.521,1.287-1.521,3.16V2803.4s.116,1.405.234,3.044l-1.522.117-11.472-19.2Zm-14.633-1.172-3.278,10.654h6.79l-3.512-10.654Z" transform="translate(310.204 -2780.574)"/><path class="a" d="M-197.784,2796.847h-1.756v5.034c0,2.575.7,3.16,2.692,3.16v.937h-9.014v-.937c1.873,0,2.575-.7,2.575-3.278v-16.506c0-2.575-.7-3.043-2.575-3.043v-.82h6.79c6.555,0,10.419,1.99,10.419,7.375,0,5.619-4.683,8.078-9.131,8.078Zm-1.171-13.814h-.585v12.058h1.053c3.863,0,5.852-1.756,5.852-6.2s-1.755-5.854-6.321-5.854Z" transform="translate(310.282 -2780.574)"/><path class="a" d="M-238.891,2801.323c-4.449,0-7.492-3.161-7.492-7.726a7.452,7.452,0,0,1,7.492-7.727,7.359,7.359,0,0,1,7.375,7.727,7.5,7.5,0,0,1-7.375,7.726Zm0-14.047c-3.044,0-4.1,2.927-4.1,6.322,0,3.16.936,6.322,4.1,6.322,3.043,0,3.98-3.161,3.98-6.439,0-3.161-1.171-6.2-3.98-6.2Z" transform="translate(310.534 -2780.602)"/><path class="a" d="M-290.723,2799.915v-.82c1.17,0,1.4-.352,1.4-.7a3.463,3.463,0,0,0-.235-1.171s-.234-.936-.468-1.639h-4.566l-.468,1.521a3.464,3.464,0,0,0-.234,1.171c0,.468.468.82,1.171.82v.82h-4.566v-.82c1.171,0,1.639-.352,2.107-1.639l3.512-10.536a1.073,1.073,0,0,0-1.171-.819v-.82h3.746c3.044,8.9,3.863,11.238,3.863,11.238.585,1.99,1.171,2.576,2.108,2.576v.82Zm-1.64-11.356-1.755,5.736h3.628l-1.873-5.736Z" transform="translate(310.858 -2780.598)"/></g></svg>