<svg xmlns="http://www.w3.org/2000/svg" width="104.699" height="62.545" viewBox="0 0 104.699 62.545"><defs><style>.a{fill:#707070;}</style></defs><g transform="translate(0)"><path class="a" d="M415.334,2774.545a6.06,6.06,0,0,0-3.127.827c-1.012-3.281-4.061-5.133-8.695-5.133h-7.32v2.382h7.523c3.836,0,6.109,1.954,6.109,5.367s-2.273,5.367-6.109,5.367h-.067l.433-.593c.94-1.306,1.785-2.6,1.785-3.817,0-2.5-1.691-4.4-5.022-4.4a4.773,4.773,0,0,0-5.037,4.49h2.735a2.075,2.075,0,0,1,2.3-2.108c1.563,0,2.277.85,2.277,2.085a5.321,5.321,0,0,1-1.357,2.86l-1.087,1.484h-4.486v2.381h2.749l-4.8,6.566h11.493v-2.383h-6.783l3.052-4.183h1.6c.267,0,.526-.007.782-.02l8.029,9.815h3.452l-2.662-3.22,5.04-6.891c1.3-1.712,2.805-3.557,2.805-5.691a5.3,5.3,0,0,0-5.624-5.186m-3.915,15.717-4.152-5.02A7.492,7.492,0,0,0,410.9,2783a5.709,5.709,0,0,0,4.43,1.921h.143Zm3.915-7.727a2.739,2.739,0,0,1-2.876-2.8,3.179,3.179,0,0,1,.026-.381c0-.024.007-.047.01-.07a2.87,2.87,0,1,1,2.84,3.255" transform="translate(-354.363 -2762.227)"/><path class="a" d="M406.658,2762.177c-11.862,0-21.509,9.031-21.509,20.131s9.647,20.131,21.509,20.131,21.5-9.03,21.5-20.131-9.644-20.131-21.5-20.131m0,37.878c-10.455,0-18.961-7.962-18.961-17.747s8.506-17.745,18.961-17.745,18.956,7.96,18.956,17.745-8.5,17.747-18.956,17.747" transform="translate(-354.307 -2762.177)"/><path class="a" d="M356.48,2819.958v5.081h-2.365v-11.475h4.464a3.857,3.857,0,0,1,2.678.854,3.074,3.074,0,0,1,0,4.688,3.172,3.172,0,0,1-1.225.671l4.588,5.262H361.7l-4.363-5.081Zm1.959-1.967a1.5,1.5,0,0,0,1.19-.346,1.265,1.265,0,0,0,0-1.751,1.489,1.489,0,0,0-1.19-.362H356.48v2.459Z" transform="translate(-354.115 -2762.496)"/></g><path class="a" d="M368.668,2815.532v2.375h3.764v1.967h-3.764v3.2h5.166v1.969H366.3v-11.476h7.356v1.968Z" transform="translate(-354.191 -2762.496)"/><path class="a" d="M379.358,2815.532v2.375h3.764v1.967h-3.764v5.165H377v-11.476h7.354v1.968Z" transform="translate(-354.257 -2762.496)"/><rect class="a" width="2.363" height="11.474" transform="translate(32.569 51.069)"/><path class="a" d="M392.683,2813.565h1.665l6.828,7.475v-7.475h2.364v11.474h-1.664l-6.827-7.473v7.473h-2.365Z" transform="translate(-354.354 -2762.496)"/><path class="a" d="M409.595,2815.532v2.375h3.765v1.967h-3.765v3.2h5.164v1.969H407.23v-11.476h7.355v1.968Z" transform="translate(-354.444 -2762.496)"/><g transform="translate(63.409 51.069)"><path class="a" d="M420.285,2819.958v5.081H417.92v-11.475h4.465a3.862,3.862,0,0,1,2.679.854,3.076,3.076,0,0,1,0,4.688,3.194,3.194,0,0,1-1.225.671l4.588,5.262H425.5l-4.358-5.081Zm1.961-1.967a1.494,1.494,0,0,0,1.19-.346,1.265,1.265,0,0,0,0-1.751,1.488,1.488,0,0,0-1.19-.362h-1.961v2.459Z" transform="translate(-417.92 -2813.565)"/></g><path class="a" d="M434.57,2819.843v5.2h-2.362v-5.2l-4.2-6.279h2.7l2.7,4.035,2.681-4.035h2.7Z" transform="translate(-354.573 -2762.496)"/><g transform="translate(85.032 50.673)"><path class="a" d="M444.386,2823.031l2.566-2.893a4.834,4.834,0,0,0,1.339-3.36,3.818,3.818,0,0,0-4.005-3.612h-.072a3.889,3.889,0,0,0-4.016,3.578h2.366a1.685,1.685,0,0,1,3.363,0,3.218,3.218,0,0,1-.975,2.292l-5.274,6h9.058v-2.008Z" transform="translate(-439.678 -2813.166)"/><path class="a" d="M454.93,2813.166a4.259,4.259,0,0,0-4.361,4.113,4.117,4.117,0,0,0,4.291,4.029h.158l-2.313,3.729h2.61l2.887-4.648a6.22,6.22,0,0,0,1.209-3.226,4.217,4.217,0,0,0-4.482-4m.066,6.145a2.069,2.069,0,1,1,2.206-2.065,2.139,2.139,0,0,1-2.206,2.065" transform="translate(-439.746 -2813.166)"/></g></svg>