<svg xmlns="http://www.w3.org/2000/svg" width="298.822" height="41.964" viewBox="0 0 298.822 41.964"><defs><style>.a{fill:#707070;}</style></defs><g transform="translate(0 0)"><path class="a" d="M-658.974,2799.177v-11.27l-3.389,1.511a11.152,11.152,0,0,0-.714,4.743,11.685,11.685,0,0,0,2.289,5.918l1.814-.9m9.925-23.2a5.893,5.893,0,0,1,3.138,1.351,4.056,4.056,0,0,1,.922,3.976,4.039,4.039,0,0,1-1.974,2.771,5.245,5.245,0,0,1-2.856.8v5.432l2.642,2.138-2.643,2.132v7.4a12.01,12.01,0,0,0,4.289-4.916s.068-.185.223-.535a9.838,9.838,0,0,1-.968,5.119,9.549,9.549,0,0,1-3.957,4.473,10.688,10.688,0,0,1-8.011,1.382,11.366,11.366,0,0,1-7.465-5.162,12.335,12.335,0,0,1-1.81-6.957c.1-5.008,3.829-9.328,8.129-10.938a4.317,4.317,0,0,1,1.475-.393c-.342.235-.738.535-1.223.855a9.032,9.032,0,0,0-3.078,4.117l8.347-3.724v11.669l-6.732,3.374a8.779,8.779,0,0,0,5.091,2.9,7.987,7.987,0,0,0,5.381-1.1v-7.56l-2.628-2.132,2.629-2.133v-5.438a35.889,35.889,0,0,1-4.192-.89c-1.5-.369-6.489-1.77-7.274-1.887a2.96,2.96,0,0,0-2.336.443,2.32,2.32,0,0,0-.7,2.292,2.577,2.577,0,0,0,.713,1.02,2.174,2.174,0,0,1-.81-.338,3.79,3.79,0,0,1-1.746-3.035,5.028,5.028,0,0,1,2.1-4.48,6.325,6.325,0,0,1,4.415-1.112c2.458.35,5.763,1.739,8.707,2.446a3.65,3.65,0,0,0,2.825-.1,1.388,1.388,0,0,0,.494-1.886c-.627-1.082-1.828-1.057-2.845-1.248A4.341,4.341,0,0,1-649.049,2775.974Z" transform="translate(667.521 -2775.937)"/><path class="a" d="M-616.309,2796.311l-3.792,2.779v-9.243l3.792,6.465m-.108-8.88s-2.558,1.549-4.277,2.575-4.027,2.145-4.027,2.145V2802.9l-1.538,1.235.2.24,1.5-1.21,4.7,4.252,8.175-6.476-.194-.234-4.518,3.545-3.714-3.477v-1.3l7.458-5.488Z" transform="translate(667.265 -2776.008)"/><path class="a" d="M-637.96,2811.4a7.589,7.589,0,0,0,5.25-.733,7.254,7.254,0,0,0,3.781-6.7l.106-3.9v-8.523l1.616-1.235-.188-.24-1.591,1.2-3.67-4.079-4.709,4.042v-13.739l-5.883,4.547a1.529,1.529,0,0,1,1.12,1.494v19.246l-2.491,1.85.17.257,1.2-.9,3.35,3.116,5.274-4.2-.192-.24-1.239.983-1.313-1.3.013-10.723,1.536-1.309,2.292,2.845s0,6.943,0,9.248c-.018,2.458-.026,5.524-1.317,7a4.981,4.981,0,0,1-3.124,1.992" transform="translate(667.379 -2775.946)"/><path class="a" d="M-601.123,2810.43c-2.108-.24-2.992-1.517-2.968-2.526a2.3,2.3,0,0,1,1.883-2.083,4.163,4.163,0,0,1,3.694,1.72l4.867-5.376-.235-.209-1.307,1.462a8.511,8.511,0,0,0-5.089-2.74V2784.3l12.64,23.025s.121.263.641.263c.447,0,.34-.363.34-.363l0-23.172a5.769,5.769,0,0,0,3.357-1.388c2.434-2.5,1.439-5.229,1.172-5.494a2.636,2.636,0,0,1-2.6,2.4,4.478,4.478,0,0,1-3.231-1.475l-4.864,5.542.233.209,1.393-1.591a5.961,5.961,0,0,0,4.229,1.8V2797.5l-9.377-17.035a4.852,4.852,0,0,0-4.168-2.66,4.4,4.4,0,0,0-4.195,3.809,5.279,5.279,0,0,0,.024,2.459s.343-2.224,1.719-2.206c1.236.019,1.879,1.155,2.375,2.009v4.934c-1.275.087-4.594.234-4.8,3.687a4.051,4.051,0,0,0,1.482,3.085,3.1,3.1,0,0,0,1.6.577,1.512,1.512,0,0,1-.754-1.7c.288-1.014,2.4-1.18,2.473-.755v6.962c-1.014-.012-4.261.1-5.726,2.882a4.683,4.683,0,0,0,.112,4.891,4.893,4.893,0,0,0,5.078,2" transform="translate(667.146 -2775.945)"/><path class="a" d="M-574.175,2796.311l-3.793,2.779v-9.243l3.793,6.465m-.109-8.88s-2.558,1.549-4.277,2.575-4.027,2.145-4.027,2.145V2802.9l-1.538,1.235.2.24,1.5-1.21,4.7,4.252,8.175-6.476-.194-.234-4.518,3.545-3.714-3.477v-1.3l7.458-5.488Z" transform="translate(667.004 -2776.008)"/><path class="a" d="M-562.771,2807.478l-4.009-3.332-1.76,1.279-.179-.251,1.791-1.309v-9.311c.086-3.834-3.512-2.882-3.317-6.95.085-1.788,1.817-3.14,2.69-3.588a4.843,4.843,0,0,1,1.947-.473s-1.64,1.026-1.242,2.5c.614,2.274,4.5,2.476,4.574,5.507v10.563l2.871,2.3.754-.589v-11.437l-1.547-1.536,3.984-3.527,3.64,3.226-1.388,1.505v10.134l3.409,2.814.606-.389v-12.2l-1.55-1.45,3.993-3.649,3.732,3.085,1.492-1.322.2.233-3.355,2.95v9.943l-8.587,5.3-4.393-3.478-4.356,3.455" transform="translate(666.918 -2775.984)"/><path class="a" d="M-385.921,2796.311l-3.793,2.779v-9.243l3.793,6.465m-.108-8.88s-2.559,1.549-4.277,2.575-4.027,2.145-4.027,2.145V2802.9l-1.539,1.235.206.24,1.5-1.21,4.7,4.252,8.174-6.476-.193-.234-4.518,3.545-3.715-3.477v-1.3l7.46-5.488Z" transform="translate(665.837 -2776.008)"/><path class="a" d="M-424.587,2791.929l.2.234,1.54-1.327,2.286,2.587v8.886l-1.11,1.014,3.561,4.025,3.654-3.6-1.5-1.555v-10.748l.909-.725,2.526,2.949v8.861l-.95.947,3.353,3.773,3.586-3.589-1.318-1.383-.034-10.791.969-.787,2.634,2.9v8.813l-.867.866,3.7,4.037,4.971-4.59-.211-.227-1.207,1.112-1.852-2.052V2791.5l1.788-1.358-.186-.246-1.79,1.358-3.382-3.792-4.837,3.822-3.387-3.687-4.671,3.656-3.418-3.638-4.96,4.313" transform="translate(666.015 -2776.009)"/><path class="a" d="M-434.772,2791.654l.2.233,1.3-1.125,2.035,2.409v10.158l-1.435,1.254.2.234,1.507-1.285,3.281,3.785,4.742-4.233-.2-.234-1.4,1.229-1.961-2.261v-9.93l1.654-1.432-.2-.233-1.571,1.352-3.453-4.025-4.7,4.1" transform="translate(666.078 -2776.009)"/><path class="a" d="M-433.4,2783.194l3.57-3.269,2.9,3.219-3.586,3.257-2.887-3.208" transform="translate(666.07 -2775.962)"/><path class="a" d="M-448.266,2799.177v-11.27l-3.39,1.511a11.169,11.169,0,0,0-.714,4.743,11.676,11.676,0,0,0,2.289,5.918l1.815-.9m9.924-23.2a5.893,5.893,0,0,1,3.138,1.351,4.056,4.056,0,0,1,.921,3.976,4.035,4.035,0,0,1-1.975,2.771,5.241,5.241,0,0,1-2.855.8v5.432l2.644,2.138-2.644,2.132v7.4a12.016,12.016,0,0,0,4.29-4.916s.068-.185.221-.535a9.813,9.813,0,0,1-.967,5.119,9.547,9.547,0,0,1-3.956,4.473,10.689,10.689,0,0,1-8.011,1.382,11.364,11.364,0,0,1-7.465-5.162,12.327,12.327,0,0,1-1.81-6.957c.1-5.008,3.828-9.328,8.129-10.938a4.3,4.3,0,0,1,1.475-.393c-.343.235-.738.535-1.223.855a9.041,9.041,0,0,0-3.079,4.117l8.347-3.724v11.669l-6.731,3.374a8.779,8.779,0,0,0,5.092,2.9,7.984,7.984,0,0,0,5.379-1.1v-7.56l-2.628-2.132,2.628-2.133v-5.438a35.87,35.87,0,0,1-4.191-.89c-1.5-.369-6.49-1.77-7.274-1.887a2.958,2.958,0,0,0-2.336.443,2.318,2.318,0,0,0-.7,2.292,2.558,2.558,0,0,0,.713,1.02,2.174,2.174,0,0,1-.811-.338,3.784,3.784,0,0,1-1.745-3.035,5.027,5.027,0,0,1,2.1-4.48,6.329,6.329,0,0,1,4.416-1.112c2.458.35,5.763,1.739,8.707,2.446a3.647,3.647,0,0,0,2.824-.1,1.386,1.386,0,0,0,.494-1.886c-.626-1.082-1.828-1.057-2.845-1.248A4.347,4.347,0,0,1-438.342,2775.974Z" transform="translate(666.215 -2775.937)"/><path class="a" d="M-375.294,2789.5v5.34l1.778,1.549s3.861-3.092,5.262-5.955c0,0-1.734,2.354-4.071,1.635a5.61,5.61,0,0,1-2.969-2.569m-4.311,14.158s1.69-2.795,4.6-2.193a5.556,5.556,0,0,1,3.753,3.521v-6.777l-1.943-1.691C-375.335,2798.664-379.134,2801.767-379.6,2803.659Zm2.769,5.145a3.535,3.535,0,0,1-3.461-2.852c-.551-2.378,1.1-3.988,3.595-6.519l-2.944-2.692V2791.6s2.164-1.081,3.859-2.139,3.431-2.212,3.431-2.212,1.264,1.6,2.694,1.469a2,2,0,0,0,2.069-2.378c.383.682,1.405,2.71-2.528,7.245l3.2,2.587v6.674a64.233,64.233,0,0,0-7.24,4.5s-1.965-2.458-3.67-1.284C-378.981,2806.861-378.454,2808.2-376.836,2808.8Z" transform="translate(665.741 -2776.001)"/><path class="a" d="M-506.4,2801.22l4.137,3.742v-11.455l-4.137-3.828v11.541m8.529-9.353,1.443-1.327.207.233-1.4,1.3v10.613s-2.668,1.413-4.531,2.464-3.85,2.286-3.85,2.286l-4.9-4.123-1.295,1.125-.209-.234,1.361-1.186v-11.412h.018s2.31-1.044,4.257-2.145c1.742-.983,3.692-2.12,3.692-2.12Z" transform="translate(666.559 -2776.008)"/><path class="a" d="M-488.147,2790.792l3.11-3.176a4.641,4.641,0,0,0,.828.572,2.245,2.245,0,0,0,2.033.122,3.816,3.816,0,0,0,1.047-.811,5.01,5.01,0,0,1-2.561,4.928c-.605.3-2.374.861-4.225-1.4v11.418l1.969,1.74,1.643-1.36.19.24-5.146,4.3-3.916-3.564-1.408,1.327-.232-.246,2.146-1.936.018-9.856-1.646-2.181-1.414,1.247-.2-.228,4.985-4.479,2.784,3.342" transform="translate(666.457 -2776.008)"/><path class="a" d="M-474.9,2795.547l5.749-8.363a4.412,4.412,0,0,0,2.079,1.247c1.8.467,3.363-1.266,3.363-1.266-.3,2.237-1.433,4.775-3.775,5.162a5.656,5.656,0,0,1-3.981-1.259l-.373.577,7.982,12.057,1.6-1.4.206.233-5.478,4.787-7.369-11.774" transform="translate(666.327 -2776.007)"/><path class="a" d="M-479.7,2784.319c0-1.807-.739-2.919-1.706-2.838l6.272-4.406v24.938h0l1.656,1.744,1.254-1.087.2.234-5.053,4.412-3.424-3.215-1.37,1.205-.217-.234,2.391-2.082v-18.669" transform="translate(666.371 -2775.944)"/><path class="a" d="M-520.31,2791.338a2.559,2.559,0,0,1-1.782.787,2.633,2.633,0,0,1-1.8-.793v3.417a2.633,2.633,0,0,1,1.8-.793,2.6,2.6,0,0,1,1.782.75v-3.368m0-7.318-2.418-2.126-1.168.921v8.007a2.545,2.545,0,0,0,1.809.909,2.46,2.46,0,0,0,1.777-.873ZM-523.9,2806.7a3.1,3.1,0,0,0,2.527-.486,2.909,2.909,0,0,0,1.058-2.346v-8.641a2.452,2.452,0,0,0-1.777-.884,2.541,2.541,0,0,0-1.809.915Zm-8.574-22.786c0-1.683-.685-2.624-1.793-2.648-1.594-.037-1.972,2.212-1.972,2.212a4.2,4.2,0,0,1,1.16-3.306,4.658,4.658,0,0,1,4.716-1.542,3.968,3.968,0,0,1,3.154,4.184v23.2s.928.111,1.565.252c.738.153,1.438.351,1.438.351v-27.972h.306v3.772l5.037-4.055,3.69,3.281,1.72-1.487.2.233-1.8,1.549v21.57c-.089,1.406-.316,2.838-1.645,3.662-2.965,1.758-6.54-.27-9.724-.73-2.364-.352-6.076-.8-7.007,1.369a2.013,2.013,0,0,0,.789,2.531c2.153,1.439,11.736-2.415,15.022-.885,3,1.394,2.985,3.6,2.522,5.119-.778,2.845-4.371,3.343-4.371,3.343s1.757-1.021,1.256-2.711c-.253-.854-.834-1.093-2.714-.885-4.108.467-9.018,2.458-12.317,1.076a5.132,5.132,0,0,1-2.786-4.922c.084-3.006,3.555-4.191,3.555-4.191l0-11.118c-.1-.442-1.951-.325-2.355.492-.615,1.236.765,1.8.765,1.8a2.478,2.478,0,0,1-2.1-.934,3.5,3.5,0,0,1-.174-4.185c1.043-1.444,2.293-1.7,3.87-1.867Z" transform="translate(666.712 -2775.952)"/></g></svg>